<svg width="63" height="63" viewBox="0 0 63 63" fill="none" xmlns="http://www.w3.org/2000/svg">
<path d="M57.9206 20.4307C56.4637 20.1305 55.0708 21.1001 53.8945 21.799C51.9701 22.9507 49.834 23.689 47.6733 24.2452C47.5404 24.2796 47.3878 24.2944 47.2303 24.3141C46.0589 21.2182 44.5085 18.2946 42.8744 16.2766C40.2806 13.0725 37.5736 10.7838 31.5 10.7937C25.4313 10.7838 22.6209 13.5401 19.8942 16.6212C18.206 18.5309 16.7294 21.3166 15.6466 24.2944C15.5433 24.2796 15.4202 24.2747 15.3267 24.2452C13.1709 23.689 11.0348 22.9507 9.10544 21.799C7.92911 21.1001 6.53622 20.1305 5.07935 20.4307C3.27794 20.8097 3.35669 23.7333 3.52896 25.0228C4.09497 29.2753 6.71341 33.7591 10.518 36.0281C11.5418 36.6384 12.664 37.1503 13.8354 37.4604C14.1947 40.9746 15.3513 44.2673 17.955 46.7677C19.9877 48.7266 22.5274 50.0505 25.136 50.7741C26.1302 51.0448 28.6945 51.6846 31.3769 51.6846C34.0692 51.6846 36.8845 51.0448 37.8738 50.7741C40.4873 50.0505 43.0172 48.7266 45.0548 46.7677C47.6585 44.2673 48.8151 40.9746 49.1793 37.4604C50.3458 37.1503 51.468 36.6384 52.4918 36.0281C56.2964 33.7591 58.9099 29.2753 59.4808 25.0228C59.6482 23.7284 59.722 20.8097 57.9206 20.4307Z" fill="#FFF61D"/>
<path d="M31.5246 33.3457C31.1703 33.326 30.8061 33.1734 30.6141 32.9421C30.1957 32.4253 29.8069 31.8691 29.3984 31.3523C28.8471 30.6583 28.2959 29.9693 27.7496 29.2802C27.597 29.0883 27.3164 28.8914 27.2426 28.6699C27.1786 28.478 27.2525 28.2023 27.3164 28.0301C27.469 27.5526 28.0153 27.09 28.3303 26.6864C29.1818 25.6183 30.0284 24.5601 30.8454 23.4773C31.0275 23.2312 31.2638 22.9753 31.6428 23.0787C32.1891 23.2312 32.6025 24.0286 32.9225 24.4322C33.3556 24.9834 33.7838 25.5347 34.2169 26.081C34.5959 26.5584 34.965 27.0408 35.3489 27.5133C35.5557 27.779 35.7427 28.0842 35.7427 28.4189C35.7328 28.7683 35.4868 28.9898 35.2751 29.2605C34.7042 29.989 34.1332 30.7174 33.5574 31.4409C33.3014 31.7608 33.0307 32.0758 32.7748 32.3958C32.5779 32.6419 32.4057 32.9815 32.1448 33.1783C31.9775 33.3063 31.756 33.3555 31.5246 33.3457Z" fill="#FAA519"/>
<path d="M31.5049 30.5599C31.308 30.555 31.0964 30.4811 30.998 30.3729C30.7568 30.1366 30.5402 29.8856 30.3089 29.6395C29.9988 29.3245 29.6937 29.0095 29.3787 28.6896C29.295 28.601 29.1326 28.5124 29.0932 28.409C29.0587 28.3254 29.103 28.1974 29.1375 28.1137C29.2212 27.8922 29.5263 27.6855 29.7084 27.5034C30.1859 27.0112 30.6633 26.519 31.1259 26.0268C31.2293 25.9136 31.3622 25.8004 31.5738 25.8447C31.8839 25.9136 32.1152 26.2828 32.2924 26.4698C32.5385 26.7208 32.7797 26.9768 33.0258 27.2278C33.2325 27.4443 33.4441 27.6658 33.6607 27.8824C33.7739 28.0054 33.8822 28.1433 33.8773 28.3008C33.8773 28.4583 33.7345 28.5665 33.6213 28.6896C33.2965 29.0193 32.9716 29.354 32.6517 29.6887C32.509 29.8364 32.3564 29.9791 32.2087 30.1268C32.0955 30.2449 32.002 30.3925 31.8544 30.4861C31.7609 30.5402 31.6329 30.5648 31.5049 30.5599ZM47.186 45.8669L39.3504 40.8761L31.4754 45.3206L22.9212 40.8761L16.7393 45.3206L9.41554 40.4873C8.66742 43.155 8.72156 45.6799 9.61734 48.2983C10.4688 50.779 11.9208 53.0725 13.9978 54.8838C16.6261 57.1725 19.8991 58.7278 23.2657 59.5694C24.5552 59.8893 27.8578 60.6325 31.3327 60.6325C34.8026 60.6325 38.4349 59.8893 39.7146 59.5694C43.091 58.7229 46.3591 57.1725 48.9874 54.8838C53.0873 51.3154 54.2784 45.5372 53.5845 40.5513L47.186 45.8669Z" fill="#F2F2F2"/>
<path d="M9.4155 40.4874L16.7393 45.3206L22.9211 40.8762L31.4753 45.3206L39.3503 40.8762L47.1909 45.867L53.5844 40.5513C54.2784 45.5372 53.0873 51.3155 48.9874 54.8838C46.3591 57.1725 43.091 58.7278 39.7146 59.5695C38.4398 59.8894 34.8025 60.6326 31.3326 60.6326C27.8578 60.6326 24.5552 59.8894 23.2657 59.5695C19.8991 58.7229 16.6261 57.1725 13.9978 54.8838C11.9207 53.0726 10.4688 50.779 9.6173 48.2984C8.72152 45.6799 8.66738 43.155 9.4155 40.4874ZM9.4155 38.2823C9.15465 38.2823 8.89379 38.3266 8.64277 38.4251C8.31823 38.5459 8.02686 38.7417 7.79248 38.9966C7.55809 39.2515 7.38734 39.5583 7.29418 39.8918C6.41808 43.0123 6.49683 45.9949 7.53535 49.012C8.54433 51.9602 10.2768 54.5639 12.5507 56.5425C15.2971 58.9444 18.8163 60.7261 22.7292 61.7056C24.4272 62.1288 27.7938 62.8327 31.3277 62.8327C35.6097 62.8327 39.7835 61.8237 40.2461 61.7056C44.1541 60.731 47.6782 58.9444 50.4295 56.5425C54.6771 52.8462 56.6704 46.7529 55.7599 40.2462C55.7067 39.8571 55.5498 39.4896 55.3056 39.1821C55.0614 38.8747 54.7388 38.6387 54.3719 38.4989C54.116 38.4005 53.8453 38.3513 53.5746 38.3513C53.0676 38.3513 52.5705 38.5284 52.1669 38.8582L47.0088 43.1501L40.5267 39.0256C40.1674 38.7942 39.7539 38.681 39.3405 38.681C38.9664 38.6761 38.5973 38.7745 38.2577 38.9616L31.4212 42.8154L23.9301 38.9222C23.6102 38.7549 23.2607 38.6761 22.9113 38.6761C22.4585 38.6761 22.0057 38.8139 21.6267 39.0846L16.6851 42.6481L10.6312 38.6515C10.267 38.4103 9.84371 38.2823 9.4155 38.2823Z" fill="#0D0D0D"/>
<path d="M52.5656 9.42047L49.7257 14.9034L55.7058 13.8502C55.7009 13.8502 54.5639 11.4138 52.5656 9.42047Z" fill="#F2F2F2"/>
<path d="M52.5656 9.4205C54.5639 11.4139 55.7009 13.8502 55.7009 13.8502L49.7208 14.9035L52.5656 9.4205ZM52.5656 7.29425C52.1765 7.29421 51.7948 7.40116 51.4624 7.60341C51.1299 7.80567 50.8594 8.09544 50.6806 8.44105L47.8357 13.9289C47.6673 14.2525 47.5851 14.6141 47.5972 14.9787C47.6093 15.3433 47.7152 15.6986 47.9048 16.0104C48.0943 16.3221 48.361 16.5797 48.6791 16.7582C48.9972 16.9368 49.356 17.0303 49.7208 17.0297C49.8438 17.0297 49.9669 17.0199 50.0899 17.0002L56.07 15.9469C56.3916 15.8892 56.6957 15.7584 56.9587 15.5645C57.2218 15.3706 57.4367 15.1189 57.587 14.8287C57.7373 14.5386 57.819 14.2178 57.8256 13.8911C57.8322 13.5644 57.7637 13.2406 57.6253 12.9446C57.5712 12.8314 56.2964 10.144 54.0668 7.91441C53.6684 7.51691 53.1285 7.29385 52.5656 7.29425Z" fill="#0D0D0D"/>
<path d="M44.9417 2.69224C44.5529 2.69224 42.6186 1.79154 39.6458 2.69224L41.1961 7.10224L44.9417 5.6749V2.69224Z" fill="#F2F2F2"/>
<path d="M42.2543 2.29361C43.7358 2.29361 44.6857 2.69228 44.9416 2.69228V5.67494L41.1961 7.10228L39.6457 2.69228C40.6399 2.39205 41.5111 2.29361 42.2543 2.29361ZM42.2543 0.167358C41.1911 0.167358 40.1083 0.334702 39.0304 0.659546C38.7556 0.742527 38.5006 0.880993 38.2814 1.06639C38.0621 1.25178 37.8832 1.48017 37.7557 1.73744C37.6257 1.9928 37.5487 2.27179 37.5292 2.55767C37.5097 2.84355 37.5483 3.13042 37.6425 3.40103L39.1879 7.81103C39.283 8.07877 39.4303 8.32498 39.6212 8.53536C39.8122 8.74574 40.043 8.9161 40.3003 9.03658C40.8228 9.27216 41.4172 9.29163 41.954 9.09072L45.6996 7.66337C46.1037 7.51115 46.4517 7.23919 46.6971 6.88386C46.9425 6.52853 47.0736 6.10676 47.0728 5.67494V2.69228C47.0728 2.13119 46.8464 1.58978 46.4526 1.19111C46.113 0.851499 45.6651 0.634936 45.1976 0.580796C45.1631 0.570952 45.1188 0.561108 45.0745 0.551265C44.5429 0.413452 43.5684 0.167358 42.2543 0.167358Z" fill="#0D0D0D"/>
<path d="M13.7517 8.39673C13.7517 8.39673 10.1834 9.81915 9.2876 13.1267L13.7517 14.426L15.2628 11.4089L13.7517 8.39673Z" fill="#F2F2F2"/>
<path d="M13.7518 8.3967L15.2628 11.4138L13.7518 14.4309L9.28763 13.1315C10.1834 9.81912 13.7518 8.3967 13.7518 8.3967ZM13.7518 6.27045C13.486 6.27045 13.2202 6.31967 12.9643 6.42303C12.7772 6.49686 8.39185 8.2835 7.23521 12.5803C6.93497 13.6976 7.58466 14.8493 8.697 15.1741L13.1562 16.4735C13.3531 16.5326 13.5549 16.5621 13.7518 16.5621C14.5393 16.5621 15.2825 16.124 15.6516 15.3858L17.1626 12.3736C17.3107 12.0779 17.3879 11.7518 17.3879 11.4212C17.3879 11.0905 17.3107 10.7644 17.1626 10.4688L15.6516 7.4517C15.4771 7.09681 15.2066 6.79798 14.8708 6.58916C14.5349 6.38035 14.1472 6.26993 13.7518 6.27045ZM24.6045 24.6143C24.3387 25.7315 23.374 26.4354 22.4586 26.1991C21.5382 25.9579 21.0115 24.8554 21.2773 23.7382C21.548 22.6258 22.5078 21.9122 23.4282 22.1583C24.3436 22.3945 24.8752 23.497 24.6045 24.6143ZM38.5186 24.6143C38.7844 25.7315 39.7491 26.4354 40.6646 26.1991C41.5801 25.9579 42.1116 24.8554 41.8458 23.7382C41.5751 22.6258 40.6154 21.9122 39.6999 22.1583C38.7746 22.3945 38.2479 23.497 38.5186 24.6143Z" fill="#0D0D0D"/>
</svg>
