<svg width="63" height="63" viewBox="0 0 63 63" fill="none" xmlns="http://www.w3.org/2000/svg">
<path d="M15.6031 22.54C15.4088 25.431 18.6971 28.0105 14.3571 27.7182C10.0171 27.426 0.644085 23.2855 0.763085 21.5407C0.882085 19.796 7.25209 16.716 11.5921 17.0082C15.9321 17.2987 15.7991 19.6472 15.6031 22.54ZM50.8166 50.6257C50.4783 50.5802 50.1343 50.6382 49.8296 50.792C45.7608 51.198 44.1858 47.4932 44.1858 47.4932C43.4176 46.9052 42.4691 43.9775 41.4051 45.367L41.7323 47.8205C42.0596 50.274 46.2298 53.4625 46.2298 53.4625L44.1036 56.2432C43.964 56.4258 43.8617 56.6341 43.8026 56.8562C43.7435 57.0783 43.7287 57.3099 43.7591 57.5378C43.7895 57.7656 43.8644 57.9852 43.9797 58.1841C44.0949 58.3829 44.2482 58.5571 44.4308 58.6967C44.6134 58.8363 44.8217 58.9386 45.0438 58.9977C45.2659 59.0568 45.4975 59.0716 45.7254 59.0412C45.9532 59.0109 46.1728 58.9359 46.3717 58.8206C46.5705 58.7054 46.7447 58.5521 46.8843 58.3695L48.0621 56.8295L47.9938 57.2652C47.921 57.7238 48.0332 58.1925 48.306 58.5683C48.5787 58.9441 48.9895 59.1961 49.4481 59.269C49.9066 59.3418 50.3754 59.2296 50.7511 58.9568C51.1269 58.6841 51.379 58.2733 51.4518 57.8147L52.2743 52.6295C52.3459 52.1706 52.2327 51.702 51.9594 51.3264C51.6862 50.9509 51.2752 50.6989 50.8166 50.6257ZM39.8301 51.716C39.5007 51.6271 39.1523 51.638 38.8291 51.7475C34.7428 51.604 33.6771 47.7225 33.6771 47.7225C32.9946 47.0365 32.4468 44.0072 31.2061 45.2427L31.2008 47.7172C31.1956 50.1917 34.9021 53.9105 34.9021 53.9105L32.4223 56.3815C32.2595 56.5436 32.1302 56.7362 32.0418 56.9483C31.9535 57.1604 31.9077 57.3879 31.9072 57.6176C31.9067 57.8474 31.9515 58.075 32.039 58.2875C32.1265 58.5 32.255 58.6932 32.4171 58.856C32.5792 59.0188 32.7718 59.1481 32.9839 59.2365C33.196 59.3249 33.4235 59.3706 33.6533 59.3711C33.883 59.3716 34.1106 59.3268 34.3231 59.2393C34.5356 59.1518 34.7288 59.0234 34.8916 58.8612L36.2653 57.4927L36.1376 57.9162C36.0039 58.3609 36.0524 58.8404 36.2722 59.2493C36.4921 59.6582 36.8655 59.9631 37.3101 60.0967C37.7547 60.2304 38.2342 60.182 38.6432 59.9621C39.0521 59.7422 39.3569 59.3689 39.4906 58.9242L40.9991 53.8965C41.0664 53.6766 41.0895 53.4455 41.0671 53.2166C41.0447 52.9877 40.9772 52.7655 40.8686 52.5629C40.7599 52.3602 40.6122 52.181 40.434 52.0356C40.2557 51.8903 40.0505 51.7816 39.8301 51.716Z" fill="#FAA519"/>
<path d="M61.2657 11.7758C60.5955 11.4783 59.9392 11.676 59.4282 12.2028C59.3337 12.3008 52.0345 23.2383 33.9972 20.8548C33.4022 20.776 39.4905 41.7988 39.5955 41.7883C39.8125 41.7638 44.968 41.1443 50.3405 37.3205C55.272 33.8118 61.3375 26.8363 62.2352 13.524C62.2842 12.7925 61.936 12.075 61.2657 11.7758Z" fill="#FFF61D"/>
<path d="M60.3347 36.939C59.9777 36.351 59.3022 35.959 58.6214 36.1148C56.3587 36.631 53.0267 37.065 50.6939 36.9075C39.5692 36.1585 34.3122 29.6818 34.2579 29.6275C33.7767 29.134 35.0734 49.8435 35.6859 49.8855C51.7754 50.9705 59.9444 39.3383 60.2857 38.843C60.6742 38.2725 60.6934 37.5288 60.3347 36.939Z" fill="#FFF61D"/>
<path d="M43.0254 33.278C42.3761 42.9205 45.3284 50.5347 35.6859 49.8837C26.0434 49.2345 17.9321 41.2737 18.5814 31.6295C19.2306 21.9852 43.6764 23.6355 43.0254 33.278Z" fill="#FFF61D"/>
<path d="M40.6998 21.721C40.082 30.8823 33.8363 37.9208 24.6768 37.303C15.5155 36.6853 8.58902 28.7595 9.20677 19.5983C9.82452 10.437 17.6628 4.82126 26.824 5.43901C33.8258 5.90976 41.244 13.6343 40.6998 21.721Z" fill="#FFF61D"/>
<path d="M18.6726 19.2308C20.6056 19.2308 22.1726 17.6638 22.1726 15.7308C22.1726 13.7978 20.6056 12.2308 18.6726 12.2308C16.7396 12.2308 15.1726 13.7978 15.1726 15.7308C15.1726 17.6638 16.7396 19.2308 18.6726 19.2308Z" fill="#0D0D0D"/>
<path d="M31.8133 29.1287C31.8133 29.1287 45.1658 39.0127 53.4906 21.3255C54.1836 19.852 56.4393 22.7132 53.6638 28.609C50.8883 34.5047 39.3576 39.879 32.5938 31.297C31.1676 29.4857 31.8133 29.1287 31.8133 29.1287Z" fill="#FAA519"/>
<path d="M26.8223 5.43723C26.8223 5.43723 37.7528 5.88173 40.4688 4.60248C43.1848 3.32323 40.7068 9.73348 34.7603 11.2332C28.8138 12.733 26.8223 5.43723 26.8223 5.43723Z" fill="#FFF61D"/>
<path d="M30.4991 10.129C30.4991 10.129 38.3759 10.367 41.0936 9.08952C43.8114 7.81202 41.3316 14.2205 35.3851 15.7203C29.4369 17.22 30.4991 10.129 30.4991 10.129Z" fill="#FFF61D"/>
</svg>
