<svg width="63" height="63" viewBox="0 0 63 63" fill="none" xmlns="http://www.w3.org/2000/svg">
<path d="M33.7639 49.9078H36.2249V60.5391H33.7639V49.9078Z" fill="#FAA519"/>
<path d="M35.7327 60.6375C35.7327 60.1453 37.5045 59.1609 39.6702 59.1609C41.8358 59.1609 43.6077 60.1453 43.6077 60.6375C43.6077 61.1297 41.8358 61.0313 39.6702 61.0313C37.5045 61.0313 35.7327 61.1297 35.7327 60.6375Z" fill="#FAA519"/>
<path d="M31.0078 60.6375C31.0078 60.1453 32.7797 59.1609 34.9453 59.1609C37.1109 59.1609 38.8828 60.1453 38.8828 60.6375C38.8828 61.1297 37.1109 61.0313 34.9453 61.0313C32.7797 61.0313 31.0078 61.1297 31.0078 60.6375Z" fill="#FAA519"/>
<path d="M26.3812 60.6375C26.3812 60.1453 28.1531 59.1609 30.3187 59.1609C32.4844 59.1609 34.2562 60.1453 34.2562 60.6375C34.2562 61.1297 32.4844 61.0313 30.3187 61.0313C28.1531 61.0313 26.3812 61.1297 26.3812 60.6375ZM13.7812 54.8297L11.8125 53.4516L18.0141 45.3797L19.9828 46.7578L13.7812 54.8297Z" fill="#FAA519"/>
<path d="M13.2891 54.5344C13.5844 54.1406 15.6516 54.3375 17.325 55.5188C19.0969 56.7 19.8844 58.5703 19.5891 58.9641C19.2938 59.3578 17.9157 58.275 16.1438 57.0938C14.4704 55.9125 12.9938 54.9281 13.2891 54.5344Z" fill="#FAA519"/>
<path d="M9.54838 51.975C9.84369 51.5813 11.9109 51.7781 13.5843 52.9594C15.3562 54.1406 16.1437 56.0109 15.8484 56.4047C15.5531 56.7984 14.1749 55.7156 12.4031 54.5344C10.7296 53.2547 9.25307 52.3688 9.54838 51.975Z" fill="#FAA519"/>
<path d="M5.90618 49.3172C6.2015 48.9235 8.26868 49.1204 9.94212 50.3016C11.714 51.4829 12.5015 53.3532 12.2062 53.7469C11.9109 54.1407 10.5327 53.0579 8.76087 51.8766C6.989 50.6954 5.51243 49.711 5.90618 49.3172Z" fill="#FAA519"/>
<path d="M59.9484 30.0234C64.4765 30.0234 55.1249 50.7937 32.5828 50.7937C17.2265 50.7937 6.49683 44.2969 6.49683 32.2875C6.49683 20.2781 14.9624 8.66249 30.3187 12.6C45.9703 16.5375 34.9453 30.0234 59.9484 30.0234Z" fill="#FFF61D"/>
<path d="M19.6875 21.4594C18.6046 25.6922 31.8937 21.6562 29.4328 12.9937C26.9718 4.33125 18.8015 1.96875 18.8015 1.96875C18.8015 1.96875 22.5421 10.3359 19.6875 21.4594Z" fill="#FFF61D"/>
<path d="M19.9827 21.9516C23.2312 25.1016 27.8577 13.6828 18.3093 10.3359C8.76084 6.98906 4.13428 9.45 4.13428 9.45C4.13428 9.45 11.4187 13.5844 19.9827 21.9516Z" fill="#FFF61D"/>
<path d="M30.8109 25.2985C30.5156 29.5313 18.8999 23.3297 24.0187 15.3563C29.1374 7.38284 37.8984 6.59534 37.8984 6.59534C37.8984 6.59534 31.6968 13.8797 30.8109 25.2985Z" fill="#FFF61D"/>
<path d="M56.3062 40.5562C51.3843 41.4422 43.0171 44.789 33.6655 44.789C22.4437 44.789 12.7968 40.064 8.56396 40.3594C12.3046 47.1515 21.164 50.7937 32.5827 50.7937C43.8046 50.7937 51.6796 45.675 56.3062 40.5562Z" fill="#FFF61D"/>
<path d="M3.34692 30.7125L8.85942 29.7281C8.85942 32.2875 8.66255 33.961 6.79224 33.961C5.02036 34.0594 3.34692 33.2719 3.34692 30.7125Z" fill="#FAA519"/>
<path d="M8.85938 29.8266L1.96875 31.6969C1.96875 28.5469 4.52813 25.0031 6.79219 25.0031C9.15469 25.1016 8.85938 26.6766 8.85938 29.8266Z" fill="#FAA519"/>
<path d="M10.8281 24.7078C10.8281 23.1328 12.1078 21.4594 13.6828 21.4594C15.2578 21.4594 16.5375 23.1328 16.5375 24.7078C16.5375 26.2828 15.2578 26.9719 13.6828 26.9719C12.1078 26.8734 10.8281 26.1844 10.8281 24.7078Z" fill="#0D0D0D"/>
<path d="M47.7421 36.7172C47.7421 41.9344 41.1468 46.1672 32.9765 46.1672C24.8062 46.1672 23.3296 41.9344 23.3296 36.7172C23.3296 31.5 24.8062 27.2672 32.9765 27.2672C41.1468 27.2672 47.7421 31.5 47.7421 36.7172Z" fill="#FAA519"/>
<path d="M50.4 36.3235C49.0218 36.7172 47.939 36.1266 47.939 36.1266C49.4156 34.8469 49.8093 32.6813 49.8093 32.6813C48.825 33.5672 47.0531 33.5672 47.0531 33.5672C47.5453 31.9922 47.25 30.811 47.25 30.811C44.9859 34.1578 37.0125 34.2563 37.0125 34.2563C41.8359 37.4063 44.3953 41.6391 44.3953 41.6391C48.2343 40.261 50.4 36.3235 50.4 36.3235Z" fill="#FAA519"/>
</svg>
