<svg width="97" height="72" viewBox="0 0 97 72" fill="none" xmlns="http://www.w3.org/2000/svg">
<mask id="path-1-inside-1_12_938" fill="white">
<path d="M15.4376 53.2222C14.4535 53.2222 13.6753 52.9361 13.1031 52.3639C12.5309 51.7917 12.2448 51.0136 12.2448 50.0294V32.2802C12.4966 32.2344 12.8971 32.1772 13.4464 32.1085C13.9957 32.017 14.5221 31.9712 15.0257 31.9712C15.5521 31.9712 16.0098 32.017 16.3989 32.1085C16.8109 32.1772 17.1542 32.3145 17.4288 32.5205C17.7035 32.7265 17.9095 33.0126 18.0468 33.3788C18.1841 33.745 18.2528 34.2256 18.2528 34.8207V48.3815H26.1146C26.2748 48.6333 26.4236 48.9766 26.5609 49.4114C26.6982 49.8234 26.7669 50.2583 26.7669 50.716C26.7669 51.6315 26.5724 52.2838 26.1833 52.6729C25.7942 53.0391 25.2792 53.2222 24.6384 53.2222H15.4376ZM26.3262 36.6746C26.5551 36.6059 26.9099 36.5373 27.3905 36.4686C27.894 36.3999 28.409 36.3656 28.9354 36.3656C29.4389 36.3656 29.8852 36.3999 30.2743 36.4686C30.6863 36.5373 31.0296 36.6746 31.3042 36.8806C31.5789 37.0866 31.7849 37.3727 31.9222 37.7389C32.0824 38.0822 32.1625 38.5399 32.1625 39.1121V46.4933C32.1625 47.4317 32.3914 48.1069 32.8491 48.5188C33.3069 48.9079 33.9706 49.1025 34.8403 49.1025C35.3668 49.1025 35.7902 49.0567 36.1106 48.9651C36.4539 48.8736 36.7171 48.782 36.9002 48.6905V36.6746C37.1291 36.6059 37.4838 36.5373 37.9645 36.4686C38.468 36.3999 38.983 36.3656 39.5094 36.3656C40.0129 36.3656 40.4592 36.3999 40.8483 36.4686C41.2603 36.5373 41.6036 36.6746 41.8782 36.8806C42.1529 37.0866 42.3589 37.3727 42.4962 37.7389C42.6564 38.0822 42.7365 38.5399 42.7365 39.1121V49.5488C42.7365 50.6931 42.2559 51.5514 41.2946 52.1236C40.4935 52.6271 39.5323 53.0048 38.4108 53.2565C37.3122 53.5312 36.1106 53.6685 34.806 53.6685C33.5701 53.6685 32.4257 53.5312 31.3729 53.2565C30.343 52.9819 29.4504 52.5585 28.6951 51.9863C27.9398 51.4141 27.3562 50.6817 26.9442 49.7891C26.5322 48.8736 26.3262 47.775 26.3262 46.4933V36.6746ZM53.3116 40.5197C52.7394 40.5197 52.1901 40.6112 51.6637 40.7943C51.1601 40.9774 50.7138 41.2521 50.3248 41.6183C49.9586 41.9616 49.661 42.3964 49.4321 42.9229C49.2033 43.4493 49.0888 44.0672 49.0888 44.7767C49.0888 46.1958 49.4894 47.26 50.2904 47.9695C51.1144 48.679 52.11 49.0338 53.2772 49.0338C53.9639 49.0338 54.5589 48.9537 55.0624 48.7935C55.566 48.6333 56.0123 48.4616 56.4014 48.2785C56.8591 48.5989 57.2024 48.9537 57.4313 49.3428C57.6602 49.709 57.7746 50.1553 57.7746 50.6817C57.7746 51.6201 57.3283 52.3525 56.4357 52.8789C55.5431 53.3824 54.3072 53.6342 52.7279 53.6342C51.286 53.6342 49.9814 53.4282 48.8142 53.0162C47.6469 52.5813 46.6399 51.9863 45.793 51.231C44.9691 50.4528 44.3282 49.5259 43.8705 48.4502C43.4128 47.3745 43.1839 46.1843 43.1839 44.8797C43.1839 43.3692 43.4242 42.0531 43.9048 40.9316C44.4084 39.7873 45.0835 38.8489 45.9304 38.1165C46.7772 37.3841 47.7499 36.8348 48.8485 36.4686C49.97 36.1024 51.1487 35.9193 52.3846 35.9193C54.0325 35.9193 55.3028 36.2168 56.1954 36.8119C57.088 37.407 57.5343 38.1737 57.5343 39.1121C57.5343 39.547 57.4313 39.9589 57.2253 40.348C57.0193 40.7142 56.779 41.0346 56.5044 41.3093C56.1153 41.1262 55.6461 40.9545 55.0968 40.7943C54.5475 40.6112 53.9524 40.5197 53.3116 40.5197ZM65.4393 49.4114C65.8284 49.4114 66.2518 49.3771 66.7095 49.3084C67.1902 49.2169 67.5449 49.1025 67.7738 48.9651V46.2186L65.302 46.4246C64.6611 46.4704 64.1347 46.6077 63.7227 46.8366C63.3108 47.0655 63.1048 47.4088 63.1048 47.8665C63.1048 48.3243 63.2764 48.7019 63.6197 48.9995C63.9859 49.2741 64.5925 49.4114 65.4393 49.4114ZM65.1646 35.9193C66.4006 35.9193 67.5221 36.0452 68.5291 36.2969C69.559 36.5487 70.4288 36.9378 71.1383 37.4642C71.8707 37.9677 72.4314 38.62 72.8205 39.4211C73.2096 40.1993 73.4041 41.1262 73.4041 42.2019V49.8921C73.4041 50.4871 73.2325 50.9792 72.8892 51.3683C72.5687 51.7345 72.1796 52.0549 71.7219 52.3296C70.2342 53.2222 68.14 53.6685 65.4393 53.6685C64.2263 53.6685 63.1277 53.5541 62.1435 53.3252C61.1822 53.0963 60.3468 52.753 59.6373 52.2953C58.9507 51.8375 58.4129 51.2539 58.0238 50.5444C57.6576 49.8349 57.4745 49.0109 57.4745 48.0725C57.4745 46.4933 57.9437 45.2803 58.8821 44.4334C59.8204 43.5866 61.2738 43.0602 63.2421 42.8542L67.7395 42.3736V42.1332C67.7395 41.4695 67.4419 41.0003 66.8469 40.7257C66.2747 40.4281 65.4393 40.2794 64.3407 40.2794C63.471 40.2794 62.6241 40.3709 61.8002 40.554C60.9763 40.7371 60.2324 40.966 59.5687 41.2406C59.2711 41.0346 59.0194 40.7257 58.8134 40.3137C58.6074 39.8788 58.5044 39.4325 58.5044 38.9748C58.5044 38.3797 58.6417 37.9105 58.9164 37.5672C59.2139 37.201 59.6602 36.892 60.2553 36.6403C60.919 36.3885 61.6972 36.2054 62.5898 36.091C63.5053 35.9765 64.3636 35.9193 65.1646 35.9193ZM88.6453 48.1412C88.6453 49.8806 87.993 51.2424 86.6884 52.2266C85.3838 53.2107 83.4613 53.7028 80.9208 53.7028C79.9595 53.7028 79.0669 53.6342 78.2429 53.4968C77.419 53.3595 76.7095 53.1535 76.1144 52.8789C75.5422 52.5813 75.0845 52.2151 74.7412 51.7803C74.4207 51.3454 74.2605 50.8305 74.2605 50.2354C74.2605 49.6861 74.375 49.2283 74.6038 48.8621C74.8327 48.4731 75.1074 48.1526 75.4278 47.9009C76.0915 48.2671 76.8468 48.5989 77.6936 48.8965C78.5634 49.1711 79.559 49.3084 80.6804 49.3084C81.3899 49.3084 81.9278 49.2055 82.294 48.9995C82.6831 48.7935 82.8776 48.5188 82.8776 48.1755C82.8776 47.8551 82.7403 47.6033 82.4657 47.4202C82.191 47.2371 81.7333 47.0884 81.0924 46.9739L80.0625 46.7679C78.0713 46.3789 76.5836 45.7723 75.5994 44.9484C74.6382 44.1016 74.1575 42.9 74.1575 41.3436C74.1575 40.4968 74.3406 39.7301 74.7068 39.0434C75.073 38.3568 75.588 37.7846 76.2517 37.3269C76.9155 36.8691 77.7051 36.5144 78.6206 36.2626C79.559 36.0109 80.5889 35.885 81.7104 35.885C82.5572 35.885 83.3468 35.9536 84.0792 36.091C84.8345 36.2054 85.4868 36.3885 86.0361 36.6403C86.5854 36.892 87.0203 37.2239 87.3407 37.6359C87.6611 38.0249 87.8213 38.4941 87.8213 39.0434C87.8213 39.5698 87.7183 40.0276 87.5123 40.4167C87.3292 40.7829 87.0889 41.0919 86.7914 41.3436C86.6083 41.2292 86.3336 41.1147 85.9674 41.0003C85.6012 40.863 85.2007 40.7486 84.7658 40.657C84.331 40.5426 83.8847 40.451 83.4269 40.3824C82.9921 40.3137 82.5915 40.2794 82.2253 40.2794C81.4701 40.2794 80.8864 40.3709 80.4745 40.554C80.0625 40.7142 79.8565 40.9774 79.8565 41.3436C79.8565 41.5954 79.9709 41.8014 80.1998 41.9616C80.4287 42.1218 80.8635 42.2706 81.5044 42.4079L82.5687 42.6482C84.7658 43.1517 86.3222 43.8498 87.2377 44.7424C88.1761 45.6121 88.6453 46.7451 88.6453 48.1412Z"/>
</mask>
<path d="M15.4376 53.2222C14.4535 53.2222 13.6753 52.9361 13.1031 52.3639C12.5309 51.7917 12.2448 51.0136 12.2448 50.0294V32.2802C12.4966 32.2344 12.8971 32.1772 13.4464 32.1085C13.9957 32.017 14.5221 31.9712 15.0257 31.9712C15.5521 31.9712 16.0098 32.017 16.3989 32.1085C16.8109 32.1772 17.1542 32.3145 17.4288 32.5205C17.7035 32.7265 17.9095 33.0126 18.0468 33.3788C18.1841 33.745 18.2528 34.2256 18.2528 34.8207V48.3815H26.1146C26.2748 48.6333 26.4236 48.9766 26.5609 49.4114C26.6982 49.8234 26.7669 50.2583 26.7669 50.716C26.7669 51.6315 26.5724 52.2838 26.1833 52.6729C25.7942 53.0391 25.2792 53.2222 24.6384 53.2222H15.4376ZM26.3262 36.6746C26.5551 36.6059 26.9099 36.5373 27.3905 36.4686C27.894 36.3999 28.409 36.3656 28.9354 36.3656C29.4389 36.3656 29.8852 36.3999 30.2743 36.4686C30.6863 36.5373 31.0296 36.6746 31.3042 36.8806C31.5789 37.0866 31.7849 37.3727 31.9222 37.7389C32.0824 38.0822 32.1625 38.5399 32.1625 39.1121V46.4933C32.1625 47.4317 32.3914 48.1069 32.8491 48.5188C33.3069 48.9079 33.9706 49.1025 34.8403 49.1025C35.3668 49.1025 35.7902 49.0567 36.1106 48.9651C36.4539 48.8736 36.7171 48.782 36.9002 48.6905V36.6746C37.1291 36.6059 37.4838 36.5373 37.9645 36.4686C38.468 36.3999 38.983 36.3656 39.5094 36.3656C40.0129 36.3656 40.4592 36.3999 40.8483 36.4686C41.2603 36.5373 41.6036 36.6746 41.8782 36.8806C42.1529 37.0866 42.3589 37.3727 42.4962 37.7389C42.6564 38.0822 42.7365 38.5399 42.7365 39.1121V49.5488C42.7365 50.6931 42.2559 51.5514 41.2946 52.1236C40.4935 52.6271 39.5323 53.0048 38.4108 53.2565C37.3122 53.5312 36.1106 53.6685 34.806 53.6685C33.5701 53.6685 32.4257 53.5312 31.3729 53.2565C30.343 52.9819 29.4504 52.5585 28.6951 51.9863C27.9398 51.4141 27.3562 50.6817 26.9442 49.7891C26.5322 48.8736 26.3262 47.775 26.3262 46.4933V36.6746ZM53.3116 40.5197C52.7394 40.5197 52.1901 40.6112 51.6637 40.7943C51.1601 40.9774 50.7138 41.2521 50.3248 41.6183C49.9586 41.9616 49.661 42.3964 49.4321 42.9229C49.2033 43.4493 49.0888 44.0672 49.0888 44.7767C49.0888 46.1958 49.4894 47.26 50.2904 47.9695C51.1144 48.679 52.11 49.0338 53.2772 49.0338C53.9639 49.0338 54.5589 48.9537 55.0624 48.7935C55.566 48.6333 56.0123 48.4616 56.4014 48.2785C56.8591 48.5989 57.2024 48.9537 57.4313 49.3428C57.6602 49.709 57.7746 50.1553 57.7746 50.6817C57.7746 51.6201 57.3283 52.3525 56.4357 52.8789C55.5431 53.3824 54.3072 53.6342 52.7279 53.6342C51.286 53.6342 49.9814 53.4282 48.8142 53.0162C47.6469 52.5813 46.6399 51.9863 45.793 51.231C44.9691 50.4528 44.3282 49.5259 43.8705 48.4502C43.4128 47.3745 43.1839 46.1843 43.1839 44.8797C43.1839 43.3692 43.4242 42.0531 43.9048 40.9316C44.4084 39.7873 45.0835 38.8489 45.9304 38.1165C46.7772 37.3841 47.7499 36.8348 48.8485 36.4686C49.97 36.1024 51.1487 35.9193 52.3846 35.9193C54.0325 35.9193 55.3028 36.2168 56.1954 36.8119C57.088 37.407 57.5343 38.1737 57.5343 39.1121C57.5343 39.547 57.4313 39.9589 57.2253 40.348C57.0193 40.7142 56.779 41.0346 56.5044 41.3093C56.1153 41.1262 55.6461 40.9545 55.0968 40.7943C54.5475 40.6112 53.9524 40.5197 53.3116 40.5197ZM65.4393 49.4114C65.8284 49.4114 66.2518 49.3771 66.7095 49.3084C67.1902 49.2169 67.5449 49.1025 67.7738 48.9651V46.2186L65.302 46.4246C64.6611 46.4704 64.1347 46.6077 63.7227 46.8366C63.3108 47.0655 63.1048 47.4088 63.1048 47.8665C63.1048 48.3243 63.2764 48.7019 63.6197 48.9995C63.9859 49.2741 64.5925 49.4114 65.4393 49.4114ZM65.1646 35.9193C66.4006 35.9193 67.5221 36.0452 68.5291 36.2969C69.559 36.5487 70.4288 36.9378 71.1383 37.4642C71.8707 37.9677 72.4314 38.62 72.8205 39.4211C73.2096 40.1993 73.4041 41.1262 73.4041 42.2019V49.8921C73.4041 50.4871 73.2325 50.9792 72.8892 51.3683C72.5687 51.7345 72.1796 52.0549 71.7219 52.3296C70.2342 53.2222 68.14 53.6685 65.4393 53.6685C64.2263 53.6685 63.1277 53.5541 62.1435 53.3252C61.1822 53.0963 60.3468 52.753 59.6373 52.2953C58.9507 51.8375 58.4129 51.2539 58.0238 50.5444C57.6576 49.8349 57.4745 49.0109 57.4745 48.0725C57.4745 46.4933 57.9437 45.2803 58.8821 44.4334C59.8204 43.5866 61.2738 43.0602 63.2421 42.8542L67.7395 42.3736V42.1332C67.7395 41.4695 67.4419 41.0003 66.8469 40.7257C66.2747 40.4281 65.4393 40.2794 64.3407 40.2794C63.471 40.2794 62.6241 40.3709 61.8002 40.554C60.9763 40.7371 60.2324 40.966 59.5687 41.2406C59.2711 41.0346 59.0194 40.7257 58.8134 40.3137C58.6074 39.8788 58.5044 39.4325 58.5044 38.9748C58.5044 38.3797 58.6417 37.9105 58.9164 37.5672C59.2139 37.201 59.6602 36.892 60.2553 36.6403C60.919 36.3885 61.6972 36.2054 62.5898 36.091C63.5053 35.9765 64.3636 35.9193 65.1646 35.9193ZM88.6453 48.1412C88.6453 49.8806 87.993 51.2424 86.6884 52.2266C85.3838 53.2107 83.4613 53.7028 80.9208 53.7028C79.9595 53.7028 79.0669 53.6342 78.2429 53.4968C77.419 53.3595 76.7095 53.1535 76.1144 52.8789C75.5422 52.5813 75.0845 52.2151 74.7412 51.7803C74.4207 51.3454 74.2605 50.8305 74.2605 50.2354C74.2605 49.6861 74.375 49.2283 74.6038 48.8621C74.8327 48.4731 75.1074 48.1526 75.4278 47.9009C76.0915 48.2671 76.8468 48.5989 77.6936 48.8965C78.5634 49.1711 79.559 49.3084 80.6804 49.3084C81.3899 49.3084 81.9278 49.2055 82.294 48.9995C82.6831 48.7935 82.8776 48.5188 82.8776 48.1755C82.8776 47.8551 82.7403 47.6033 82.4657 47.4202C82.191 47.2371 81.7333 47.0884 81.0924 46.9739L80.0625 46.7679C78.0713 46.3789 76.5836 45.7723 75.5994 44.9484C74.6382 44.1016 74.1575 42.9 74.1575 41.3436C74.1575 40.4968 74.3406 39.7301 74.7068 39.0434C75.073 38.3568 75.588 37.7846 76.2517 37.3269C76.9155 36.8691 77.7051 36.5144 78.6206 36.2626C79.559 36.0109 80.5889 35.885 81.7104 35.885C82.5572 35.885 83.3468 35.9536 84.0792 36.091C84.8345 36.2054 85.4868 36.3885 86.0361 36.6403C86.5854 36.892 87.0203 37.2239 87.3407 37.6359C87.6611 38.0249 87.8213 38.4941 87.8213 39.0434C87.8213 39.5698 87.7183 40.0276 87.5123 40.4167C87.3292 40.7829 87.0889 41.0919 86.7914 41.3436C86.6083 41.2292 86.3336 41.1147 85.9674 41.0003C85.6012 40.863 85.2007 40.7486 84.7658 40.657C84.331 40.5426 83.8847 40.451 83.4269 40.3824C82.9921 40.3137 82.5915 40.2794 82.2253 40.2794C81.4701 40.2794 80.8864 40.3709 80.4745 40.554C80.0625 40.7142 79.8565 40.9774 79.8565 41.3436C79.8565 41.5954 79.9709 41.8014 80.1998 41.9616C80.4287 42.1218 80.8635 42.2706 81.5044 42.4079L82.5687 42.6482C84.7658 43.1517 86.3222 43.8498 87.2377 44.7424C88.1761 45.6121 88.6453 46.7451 88.6453 48.1412Z" fill="#0D0D0D"/>
<path d="M13.1031 52.3639L13.7774 51.6896L13.7774 51.6896L13.1031 52.3639ZM12.2448 32.2802L12.0742 31.3419L11.2912 31.4843V32.2802H12.2448ZM13.4464 32.1085L13.5647 33.0548L13.584 33.0524L13.6032 33.0492L13.4464 32.1085ZM16.3989 32.1085L16.1805 33.0368L16.2111 33.044L16.2421 33.0492L16.3989 32.1085ZM17.4288 32.5205L16.8566 33.2834L16.8566 33.2834L17.4288 32.5205ZM18.0468 33.3788L18.9397 33.044L18.9397 33.044L18.0468 33.3788ZM18.2528 48.3815H17.2991V49.3351H18.2528V48.3815ZM26.1146 48.3815L26.9192 47.8695L26.6381 47.4279H26.1146V48.3815ZM26.5609 49.4114L25.6515 49.6986L25.6538 49.7058L25.6562 49.713L26.5609 49.4114ZM26.1833 52.6729L26.8369 53.3673L26.8474 53.3574L26.8576 53.3472L26.1833 52.6729ZM15.4376 52.2686C14.6481 52.2686 14.1334 52.0456 13.7774 51.6896L12.4288 53.0382C13.2172 53.8267 14.2588 54.1758 15.4376 54.1758V52.2686ZM13.7774 51.6896C13.4215 51.3336 13.1985 50.8189 13.1985 50.0294H11.2912C11.2912 51.2082 11.6404 52.2498 12.4288 53.0382L13.7774 51.6896ZM13.1985 50.0294V32.2802H11.2912V50.0294H13.1985ZM12.4154 33.2185C12.6394 33.1777 13.0177 33.1232 13.5647 33.0548L13.3281 31.1623C12.7766 31.2312 12.3538 31.2911 12.0742 31.3419L12.4154 33.2185ZM13.6032 33.0492C14.1061 32.9654 14.5798 32.9249 15.0257 32.9249V31.0176C14.4644 31.0176 13.8854 31.0686 13.2896 31.1679L13.6032 33.0492ZM15.0257 32.9249C15.5002 32.9249 15.8814 32.9665 16.1805 33.0368L16.6173 31.1803C16.1382 31.0675 15.6039 31.0176 15.0257 31.0176V32.9249ZM16.2421 33.0492C16.5356 33.0981 16.7279 33.1869 16.8566 33.2834L18.001 31.7576C17.5804 31.4422 17.0861 31.2563 16.5557 31.1679L16.2421 33.0492ZM16.8566 33.2834C16.9662 33.3656 17.0713 33.4935 17.1539 33.7136L18.9397 33.044C18.7476 32.5317 18.4407 32.0874 18.001 31.7576L16.8566 33.2834ZM17.1539 33.7136C17.2358 33.9321 17.2991 34.2865 17.2991 34.8207H19.2064C19.2064 34.1647 19.1324 33.5579 18.9397 33.044L17.1539 33.7136ZM17.2991 34.8207V48.3815H19.2064V34.8207H17.2991ZM18.2528 49.3351H26.1146V47.4279H18.2528V49.3351ZM25.3101 48.8935C25.4088 49.0487 25.5275 49.3059 25.6515 49.6986L27.4703 49.1243C27.3196 48.6472 27.1408 48.2179 26.9192 47.8695L25.3101 48.8935ZM25.6562 49.713C25.7594 50.0226 25.8133 50.3552 25.8133 50.716H27.7205C27.7205 50.1613 27.6371 49.6242 27.4656 49.1099L25.6562 49.713ZM25.8133 50.716C25.8133 51.5375 25.6317 51.8758 25.5089 51.9986L26.8576 53.3472C27.513 52.6918 27.7205 51.7256 27.7205 50.716H25.8133ZM25.5297 51.9785C25.3517 52.146 25.0877 52.2686 24.6384 52.2686V54.1758C25.4708 54.1758 26.2367 53.9322 26.8369 53.3673L25.5297 51.9785ZM24.6384 52.2686H15.4376V54.1758H24.6384V52.2686ZM26.3262 36.6746L26.0522 35.7612L25.3726 35.965V36.6746H26.3262ZM27.3905 36.4686L27.2616 35.5237L27.2556 35.5245L27.3905 36.4686ZM30.2743 36.4686L30.1086 37.4078L30.1175 37.4093L30.2743 36.4686ZM31.3042 36.8806L31.8764 36.1177L31.8764 36.1177L31.3042 36.8806ZM31.9222 37.7389L31.0293 38.0737L31.0423 38.1085L31.058 38.1421L31.9222 37.7389ZM32.8491 48.5188L32.2112 49.2277L32.2212 49.2367L32.2315 49.2454L32.8491 48.5188ZM36.1106 48.9651L35.8649 48.0437L35.8567 48.0459L35.8486 48.0482L36.1106 48.9651ZM36.9002 48.6905L37.3267 49.5434L37.8539 49.2799V48.6905H36.9002ZM36.9002 36.6746L36.6262 35.7612L35.9466 35.965V36.6746H36.9002ZM37.9645 36.4686L37.8356 35.5237L37.8296 35.5245L37.9645 36.4686ZM40.8483 36.4686L40.6826 37.4078L40.6915 37.4093L40.8483 36.4686ZM41.8782 36.8806L41.306 37.6435L41.306 37.6435L41.8782 36.8806ZM42.4962 37.7389L41.6033 38.0737L41.6163 38.1085L41.632 38.1421L42.4962 37.7389ZM41.2946 52.1236L40.8068 51.3041L40.7969 51.3101L40.7871 51.3162L41.2946 52.1236ZM38.4108 53.2565L38.2019 52.326L38.1907 52.3286L38.1795 52.3314L38.4108 53.2565ZM31.3729 53.2565L31.1272 54.178L31.1322 54.1793L31.3729 53.2565ZM28.6951 51.9863L28.1192 52.7464L28.1192 52.7464L28.6951 51.9863ZM26.9442 49.7891L26.0745 50.1804L26.0783 50.1887L26.9442 49.7891ZM26.6002 37.588C26.7577 37.5408 27.0542 37.48 27.5254 37.4127L27.2556 35.5245C26.7655 35.5946 26.3525 35.6711 26.0522 35.7612L26.6002 37.588ZM27.5193 37.4135C27.9787 37.3509 28.4505 37.3193 28.9354 37.3193V35.412C28.3674 35.412 27.8094 35.449 27.2616 35.5237L27.5193 37.4135ZM28.9354 37.3193C29.3976 37.3193 29.7867 37.3509 30.1086 37.4077L30.44 35.5295C29.9838 35.449 29.4802 35.412 28.9354 35.412V37.3193ZM30.1175 37.4093C30.411 37.4582 30.6033 37.547 30.7321 37.6435L31.8764 36.1177C31.4558 35.8022 30.9615 35.6163 30.4311 35.5279L30.1175 37.4093ZM30.732 37.6435C30.8416 37.7257 30.9467 37.8535 31.0293 38.0737L32.8151 37.404C32.623 36.8918 32.3161 36.4474 31.8764 36.1177L30.732 37.6435ZM31.058 38.1421C31.137 38.3114 31.2089 38.6146 31.2089 39.1121H33.1162C33.1162 38.4652 33.0278 37.8529 32.7864 37.3356L31.058 38.1421ZM31.2089 39.1121V46.4933H33.1162V39.1121H31.2089ZM31.2089 46.4933C31.2089 47.5607 31.4671 48.558 32.2112 49.2277L33.4871 47.81C33.3156 47.6557 33.1162 47.3027 33.1162 46.4933H31.2089ZM32.2315 49.2454C32.9246 49.8346 33.8435 50.0561 34.8403 50.0561V48.1488C34.0977 48.1488 33.6892 47.9813 33.4668 47.7922L32.2315 49.2454ZM34.8403 50.0561C35.4104 50.0561 35.9325 50.0078 36.3726 49.8821L35.8486 48.0482C35.6479 48.1055 35.3231 48.1488 34.8403 48.1488V50.0561ZM36.3563 49.8866C36.7237 49.7886 37.0587 49.6774 37.3267 49.5434L36.4737 47.8375C36.3755 47.8866 36.1841 47.9586 35.8649 48.0437L36.3563 49.8866ZM37.8539 48.6905V36.6746H35.9466V48.6905H37.8539ZM37.1742 37.588C37.3317 37.5408 37.6281 37.48 38.0993 37.4127L37.8296 35.5245C37.3395 35.5946 36.9264 35.6711 36.6262 35.7612L37.1742 37.588ZM38.0933 37.4135C38.5526 37.3509 39.0245 37.3193 39.5094 37.3193V35.412C38.9414 35.412 38.3833 35.449 37.8356 35.5237L38.0933 37.4135ZM39.5094 37.3193C39.9716 37.3193 40.3607 37.3509 40.6826 37.4077L41.014 35.5295C40.5577 35.449 40.0542 35.412 39.5094 35.412V37.3193ZM40.6915 37.4093C40.985 37.4582 41.1773 37.547 41.306 37.6435L42.4504 36.1177C42.0298 35.8022 41.5355 35.6163 41.0051 35.5279L40.6915 37.4093ZM41.306 37.6435C41.4156 37.7257 41.5207 37.8535 41.6033 38.0737L43.3891 37.404C43.197 36.8918 42.8901 36.4474 42.4504 36.1177L41.306 37.6435ZM41.632 38.1421C41.711 38.3114 41.7829 38.6146 41.7829 39.1121H43.6901C43.6901 38.4652 43.6018 37.8529 43.3604 37.3356L41.632 38.1421ZM41.7829 39.1121V49.5488H43.6901V39.1121H41.7829ZM41.7829 49.5488C41.7829 50.3665 41.4712 50.9087 40.8068 51.3041L41.7824 52.9431C43.0406 52.1941 43.6901 51.0198 43.6901 49.5488H41.7829ZM40.7871 51.3162C40.0952 51.7511 39.2396 52.0931 38.2019 52.326L38.6197 54.187C39.825 53.9164 40.8919 53.5031 41.8021 52.931L40.7871 51.3162ZM38.1795 52.3314C37.167 52.5845 36.0442 52.7149 34.806 52.7149V54.6221C36.177 54.6221 37.4574 54.4779 38.6421 54.1817L38.1795 52.3314ZM34.806 52.7149C33.6405 52.7149 32.578 52.5854 31.6136 52.3338L31.1322 54.1793C32.2734 54.477 33.4997 54.6221 34.806 54.6221V52.7149ZM31.6186 52.3351C30.6933 52.0883 29.9161 51.7149 29.2709 51.2261L28.1192 52.7464C28.9846 53.402 29.9927 53.8754 31.1272 54.178L31.6186 52.3351ZM29.2709 51.2261C28.6452 50.7521 28.159 50.1454 27.8101 49.3894L26.0783 50.1887C26.5533 51.2179 27.2344 52.0761 28.1192 52.7464L29.2709 51.2261ZM27.8138 49.3977C27.4703 48.6343 27.2799 47.676 27.2799 46.4933H25.3726C25.3726 47.8739 25.5941 49.1128 26.0745 50.1804L27.8138 49.3977ZM27.2799 46.4933V36.6746H25.3726V46.4933H27.2799ZM51.6637 40.7943L51.3503 39.8935L51.3378 39.8981L51.6637 40.7943ZM50.3248 41.6183L50.977 42.314L50.9783 42.3127L50.3248 41.6183ZM49.4321 42.9229L50.3067 43.3031L50.3067 43.3031L49.4321 42.9229ZM50.2904 47.9695L49.6581 48.6835L49.6681 48.6922L50.2904 47.9695ZM55.0624 48.7935L54.7733 47.8847L54.7733 47.8847L55.0624 48.7935ZM56.4014 48.2785L56.9482 47.4973L56.4954 47.1803L55.9953 47.4156L56.4014 48.2785ZM57.4313 49.3428L56.6093 49.8263L56.6158 49.8373L56.6226 49.8482L57.4313 49.3428ZM56.4357 52.8789L56.9042 53.7095L56.9122 53.705L56.9201 53.7003L56.4357 52.8789ZM48.8142 53.0162L48.4813 53.9098L48.489 53.9127L48.4968 53.9155L48.8142 53.0162ZM45.793 51.231L45.1382 51.9243L45.1481 51.9336L45.1583 51.9427L45.793 51.231ZM43.8705 48.4502L44.748 48.0768L44.748 48.0768L43.8705 48.4502ZM43.9048 40.9316L43.0319 40.5476L43.0283 40.556L43.9048 40.9316ZM45.9304 38.1165L46.5542 38.8378L46.5542 38.8378L45.9304 38.1165ZM48.8485 36.4686L48.5525 35.562L48.5469 35.5639L48.8485 36.4686ZM56.1954 36.8119L55.6664 37.6054L55.6664 37.6054L56.1954 36.8119ZM57.2253 40.348L58.0565 40.8156L58.0624 40.805L58.0681 40.7942L57.2253 40.348ZM56.5044 41.3093L56.0983 42.1722L56.7047 42.4576L57.1787 41.9836L56.5044 41.3093ZM55.0968 40.7943L54.7952 41.699L54.8124 41.7048L54.8298 41.7098L55.0968 40.7943ZM53.3116 39.566C52.6356 39.566 51.9802 39.6745 51.3504 39.8936L51.977 41.695C52.3999 41.5479 52.8431 41.4733 53.3116 41.4733V39.566ZM51.3378 39.8981C50.7128 40.1254 50.1549 40.4685 49.6712 40.9238L50.9783 42.3127C51.2728 42.0356 51.6075 41.8295 51.9896 41.6906L51.3378 39.8981ZM49.6725 40.9226C49.1988 41.3666 48.8309 41.914 48.5576 42.5426L50.3067 43.3031C50.4911 42.8789 50.7183 42.5565 50.977 42.314L49.6725 40.9226ZM48.5576 42.5426C48.2658 43.2138 48.1352 43.9664 48.1352 44.7767H50.0425C50.0425 44.168 50.1408 43.6848 50.3067 43.3031L48.5576 42.5426ZM48.1352 44.7767C48.1352 46.3748 48.5916 47.7388 49.6581 48.6834L50.9227 47.2556C50.3871 46.7813 50.0425 46.0167 50.0425 44.7767H48.1352ZM49.6681 48.6922C50.6784 49.5622 51.8997 49.9874 53.2772 49.9874V48.0802C52.3202 48.0802 51.5503 47.7959 50.9127 47.2469L49.6681 48.6922ZM53.2772 49.9874C54.0343 49.9874 54.7314 49.8996 55.3516 49.7022L54.7733 47.8847C54.3864 48.0078 53.8934 48.0802 53.2772 48.0802V49.9874ZM55.3516 49.7022C55.8864 49.5321 56.373 49.3458 56.8074 49.1414L55.9953 47.4156C55.6515 47.5774 55.2455 47.7345 54.7733 47.8847L55.3516 49.7022ZM55.8545 49.0598C56.2262 49.32 56.4642 49.5796 56.6093 49.8263L58.2533 48.8593C57.9407 48.3278 57.492 47.8779 56.9482 47.4973L55.8545 49.0598ZM56.6226 49.8482C56.7379 50.0327 56.821 50.2947 56.821 50.6817H58.7282C58.7282 50.0158 58.5824 49.3853 58.24 48.8373L56.6226 49.8482ZM56.821 50.6817C56.821 51.2421 56.5897 51.6809 55.9513 52.0574L56.9201 53.7003C58.0669 53.024 58.7282 51.998 58.7282 50.6817H56.821ZM55.9671 52.0483C55.2746 52.4389 54.2242 52.6805 52.7279 52.6805V54.5878C54.3901 54.5878 55.8115 54.3259 56.9042 53.7095L55.9671 52.0483ZM52.7279 52.6805C51.3767 52.6805 50.1816 52.4875 49.1316 52.1169L48.4968 53.9155C49.7813 54.3688 51.1954 54.5878 52.7279 54.5878V52.6805ZM49.1471 52.1226C48.08 51.725 47.1779 51.1883 46.4278 50.5193L45.1583 51.9427C46.1018 52.7842 47.2138 53.4377 48.4813 53.9098L49.1471 52.1226ZM46.4478 50.5377C45.7224 49.8525 45.156 49.0355 44.748 48.0768L42.993 48.8236C43.5005 50.0162 44.2158 51.0531 45.1382 51.9243L46.4478 50.5377ZM44.748 48.0768C44.346 47.1321 44.1375 46.0709 44.1375 44.8797H42.2302C42.2302 46.2977 42.4795 47.6168 42.993 48.8236L44.748 48.0768ZM44.1375 44.8797C44.1375 43.4685 44.3622 42.2854 44.7814 41.3073L43.0283 40.556C42.4862 41.8208 42.2302 43.2698 42.2302 44.8797H44.1375ZM44.7777 41.3157C45.231 40.2856 45.8263 39.4674 46.5542 38.8378L45.3065 37.3952C44.3408 38.2304 43.5857 39.2889 43.0319 40.5476L44.7777 41.3157ZM46.5542 38.8378C47.3034 38.1898 48.1657 37.7014 49.1501 37.3733L48.5469 35.5639C47.3341 35.9682 46.251 36.5784 45.3065 37.3952L46.5542 38.8378ZM49.1445 37.3751C50.166 37.0416 51.2444 36.8729 52.3846 36.8729V34.9657C51.053 34.9657 49.774 35.1632 48.5525 35.5621L49.1445 37.3751ZM52.3846 36.8729C53.9381 36.8729 54.9936 37.1569 55.6664 37.6054L56.7244 36.0184C55.6119 35.2768 54.127 34.9657 52.3846 34.9657V36.8729ZM55.6664 37.6054C56.338 38.0531 56.5806 38.5424 56.5806 39.1121H58.4879C58.4879 37.805 57.838 36.7608 56.7244 36.0184L55.6664 37.6054ZM56.5806 39.1121C56.5806 39.3894 56.5166 39.6484 56.3825 39.9018L58.0681 40.7942C58.3459 40.2694 58.4879 39.7045 58.4879 39.1121H56.5806ZM56.3941 39.8805C56.2273 40.1771 56.0384 40.4266 55.83 40.635L57.1787 41.9836C57.5196 41.6427 57.8113 41.2514 58.0565 40.8156L56.3941 39.8805ZM56.9104 40.4464C56.4645 40.2366 55.9462 40.0487 55.3638 39.8788L54.8298 41.7098C55.346 41.8604 55.766 42.0158 56.0983 42.1722L56.9104 40.4464ZM55.3983 39.8896C54.742 39.6708 54.044 39.566 53.3116 39.566V41.4733C53.8608 41.4733 54.3529 41.5516 54.7952 41.699L55.3983 39.8896ZM66.7095 49.3084L66.851 50.2515L66.8696 50.2488L66.888 50.2452L66.7095 49.3084ZM67.7738 48.9651L68.2645 49.7829L68.7275 49.5051V48.9651H67.7738ZM67.7738 46.2186H68.7275V45.1822L67.6946 45.2683L67.7738 46.2186ZM65.302 46.4246L65.3699 47.3759L65.3812 47.375L65.302 46.4246ZM63.7227 46.8366L63.2596 46.003L63.2596 46.003L63.7227 46.8366ZM63.6197 48.9995L62.9952 49.7201L63.0206 49.7422L63.0476 49.7624L63.6197 48.9995ZM68.5291 36.2969L68.2978 37.2221L68.3027 37.2233L68.5291 36.2969ZM71.1383 37.4642L70.57 38.2301L70.5838 38.2403L70.598 38.25L71.1383 37.4642ZM72.8205 39.4211L71.9626 39.8378L71.9675 39.8476L72.8205 39.4211ZM72.8892 51.3683L72.1741 50.7374L72.1715 50.7403L72.8892 51.3683ZM71.7219 52.3296L71.2312 51.5118L71.2312 51.5118L71.7219 52.3296ZM62.1435 53.3252L61.9226 54.2529L61.9275 54.254L62.1435 53.3252ZM59.6373 52.2953L59.1084 53.0887L59.1143 53.0927L59.1203 53.0966L59.6373 52.2953ZM58.0238 50.5444L57.1763 50.9817L57.1818 50.9924L57.1876 51.0029L58.0238 50.5444ZM58.8821 44.4334L58.2431 43.7254L58.2431 43.7254L58.8821 44.4334ZM63.2421 42.8542L63.3414 43.8027L63.3434 43.8024L63.2421 42.8542ZM67.7395 42.3736L67.8408 43.3218L68.6931 43.2307V42.3736H67.7395ZM66.8469 40.7257L66.4069 41.5718L66.4268 41.5821L66.4472 41.5915L66.8469 40.7257ZM61.8002 40.554L61.5933 39.6231L61.5933 39.6231L61.8002 40.554ZM59.5687 41.2406L59.0259 42.0247L59.4531 42.3205L59.9333 42.1218L59.5687 41.2406ZM58.8134 40.3137L57.9515 40.7219L57.9559 40.7311L57.9604 40.7402L58.8134 40.3137ZM58.9164 37.5672L58.1762 36.9658L58.1717 36.9715L58.9164 37.5672ZM60.2553 36.6403L59.9171 35.7486L59.9003 35.755L59.8837 35.762L60.2553 36.6403ZM62.5898 36.091L62.4715 35.1447L62.4685 35.1451L62.5898 36.091ZM65.4393 50.3651C65.8836 50.3651 66.3549 50.3259 66.851 50.2515L66.5681 48.3654C66.1487 48.4283 65.7732 48.4578 65.4393 48.4578V50.3651ZM66.888 50.2452C67.4029 50.1472 67.89 50.0076 68.2645 49.7829L67.2832 48.1474C67.1999 48.1973 66.9775 48.2866 66.5311 48.3716L66.888 50.2452ZM68.7275 48.9651V46.2186H66.8202V48.9651H68.7275ZM67.6946 45.2683L65.2228 45.4743L65.3812 47.375L67.853 47.169L67.6946 45.2683ZM65.234 45.4734C64.502 45.5257 63.8289 45.6867 63.2596 46.003L64.1859 47.6702C64.4405 47.5288 64.8202 47.4151 65.3699 47.3758L65.234 45.4734ZM63.2596 46.003C62.9335 46.1842 62.6447 46.4364 62.4415 46.7751C62.2375 47.1152 62.1511 47.4901 62.1511 47.8665H64.0584C64.0584 47.7853 64.0751 47.7596 64.077 47.7564C64.0798 47.7518 64.1 47.7179 64.1859 47.6702L63.2596 46.003ZM62.1511 47.8665C62.1511 48.5984 62.441 49.2399 62.9952 49.7201L64.2443 48.2788C64.1118 48.164 64.0584 48.0501 64.0584 47.8665H62.1511ZM63.0476 49.7624C63.6691 50.2286 64.5384 50.3651 65.4393 50.3651V48.4578C64.6465 48.4578 64.3028 48.3197 64.1919 48.2366L63.0476 49.7624ZM65.1646 36.8729C66.3369 36.8729 67.3791 36.9924 68.2978 37.2221L68.7604 35.3718C67.665 35.0979 66.4642 34.9657 65.1646 34.9657V36.8729ZM68.3027 37.2233C69.2333 37.4508 69.9809 37.793 70.57 38.2301L71.7065 36.6983C70.8766 36.0826 69.8848 35.6466 68.7555 35.3706L68.3027 37.2233ZM70.598 38.25C71.1941 38.6599 71.6456 39.1848 71.9627 39.8377L73.6783 39.0044C73.2172 38.0552 72.5472 37.2756 71.6785 36.6784L70.598 38.25ZM71.9675 39.8476C72.2766 40.4657 72.4505 41.2399 72.4505 42.2019H74.3578C74.3578 41.0125 74.1426 39.9328 73.6735 38.9946L71.9675 39.8476ZM72.4505 42.2019V49.8921H74.3578V42.2019H72.4505ZM72.4505 49.8921C72.4505 50.2911 72.3412 50.548 72.1741 50.7374L73.6042 51.9993C74.1237 51.4105 74.3578 50.6832 74.3578 49.8921H72.4505ZM72.1715 50.7403C71.9224 51.025 71.6121 51.2833 71.2312 51.5118L72.2125 53.1473C72.7472 52.8265 73.2151 52.444 73.6068 51.9963L72.1715 50.7403ZM71.2312 51.5118C69.9525 52.2791 68.0552 52.7149 65.4393 52.7149V54.6221C68.2248 54.6221 70.5159 54.1653 72.2125 53.1473L71.2312 51.5118ZM65.4393 52.7149C64.285 52.7149 63.2604 52.6058 62.3595 52.3963L61.9275 54.254C62.9949 54.5023 64.1675 54.6221 65.4393 54.6221V52.7149ZM62.3644 52.3975C61.4907 52.1895 60.759 51.884 60.1543 51.4939L59.1203 53.0966C59.9347 53.622 60.8737 54.0032 61.9226 54.2529L62.3644 52.3975ZM60.1663 51.5018C59.605 51.1275 59.1736 50.6578 58.8599 50.0858L57.1876 51.0029C57.6521 51.8499 58.2965 52.5475 59.1084 53.0887L60.1663 51.5018ZM58.8712 50.107C58.5861 49.5545 58.4281 48.8854 58.4281 48.0725H56.5208C56.5208 49.1365 56.7291 50.1152 57.1763 50.9817L58.8712 50.107ZM58.4281 48.0725C58.4281 46.6909 58.831 45.7641 59.521 45.1414L58.2431 43.7254C57.0564 44.7965 56.5208 46.2957 56.5208 48.0725H58.4281ZM59.521 45.1414C60.2462 44.487 61.4681 43.9987 63.3414 43.8027L63.1428 41.9057C61.0795 42.1217 59.3947 42.6862 58.2431 43.7254L59.521 45.1414ZM63.3434 43.8024L67.8408 43.3218L67.6381 41.4253L63.1408 41.9059L63.3434 43.8024ZM68.6931 42.3736V42.1332H66.7858V42.3736H68.6931ZM68.6931 42.1332C68.6931 41.6561 68.5848 41.1877 68.3217 40.7728C68.0581 40.3572 67.6802 40.06 67.2465 39.8598L66.4472 41.5915C66.6086 41.666 66.677 41.7407 66.711 41.7943C66.7454 41.8486 66.7858 41.9466 66.7858 42.1332H68.6931ZM67.2868 39.8796C66.5146 39.478 65.4986 39.3257 64.3407 39.3257V41.233C65.38 41.233 66.0348 41.3782 66.4069 41.5718L67.2868 39.8796ZM64.3407 39.3257C63.4035 39.3257 62.4872 39.4244 61.5933 39.6231L62.0071 41.4849C62.7611 41.3174 63.5384 41.233 64.3407 41.233V39.3257ZM61.5933 39.6231C60.7245 39.8161 59.9268 40.0604 59.204 40.3594L59.9333 42.1218C60.5381 41.8716 61.228 41.6581 62.0071 41.4849L61.5933 39.6231ZM60.1115 40.4566C59.9769 40.3634 59.8198 40.1941 59.6664 39.8872L57.9604 40.7402C58.219 41.2573 58.5653 41.7059 59.0259 42.0247L60.1115 40.4566ZM59.6752 39.9054C59.5265 39.5915 59.4581 39.2841 59.4581 38.9748H57.5508C57.5508 39.5809 57.6883 40.1662 57.9515 40.7219L59.6752 39.9054ZM59.4581 38.9748C59.4581 38.52 59.5626 38.2859 59.6611 38.1629L58.1717 36.9715C57.7208 37.5351 57.5508 38.2394 57.5508 38.9748H59.4581ZM59.6565 38.1686C59.8261 37.9598 60.125 37.7309 60.6269 37.5185L59.8837 35.762C59.1955 36.0532 58.6017 36.4422 58.1762 36.9658L59.6565 38.1686ZM60.5935 37.5319C61.1716 37.3126 61.8739 37.1442 62.7111 37.0369L62.4685 35.1451C61.5205 35.2666 60.6665 35.4644 59.9171 35.7486L60.5935 37.5319ZM62.7081 37.0372C63.5901 36.927 64.4085 36.8729 65.1646 36.8729V34.9657C64.3186 34.9657 63.4205 35.0261 62.4715 35.1447L62.7081 37.0372ZM86.6884 52.2266L87.2627 52.9879L87.2627 52.9879L86.6884 52.2266ZM78.2429 53.4968L78.3997 52.5562L78.3997 52.5562L78.2429 53.4968ZM76.1144 52.8789L75.6744 53.725L75.6944 53.7353L75.7148 53.7448L76.1144 52.8789ZM74.7412 51.7803L73.9734 52.346L73.9828 52.3588L73.9927 52.3712L74.7412 51.7803ZM74.6038 48.8621L75.4125 49.3676L75.4193 49.3567L75.4258 49.3457L74.6038 48.8621ZM75.4278 47.9009L75.8885 47.0659L75.3353 46.7607L74.8386 47.151L75.4278 47.9009ZM77.6936 48.8965L77.3775 49.7962L77.3919 49.8013L77.4065 49.8058L77.6936 48.8965ZM82.294 48.9995L81.8478 48.1566L81.8371 48.1623L81.8265 48.1683L82.294 48.9995ZM81.0924 46.9739L80.9054 47.9091L80.9151 47.911L80.9248 47.9127L81.0924 46.9739ZM80.0625 46.7679L80.2495 45.8328L80.2454 45.832L80.0625 46.7679ZM75.5994 44.9484L74.969 45.664L74.9781 45.6719L74.9873 45.6796L75.5994 44.9484ZM74.7068 39.0434L73.8654 38.5947L73.8654 38.5947L74.7068 39.0434ZM76.2517 37.3269L76.7931 38.1119L76.7931 38.1119L76.2517 37.3269ZM78.6206 36.2626L78.3734 35.3415L78.3677 35.3431L78.6206 36.2626ZM84.0792 36.091L83.9035 37.0283L83.9199 37.0313L83.9364 37.0338L84.0792 36.091ZM86.0361 36.6403L85.6388 37.5072L85.6388 37.5072L86.0361 36.6403ZM87.3407 37.6359L86.5879 38.2213L86.5961 38.2318L86.6045 38.2421L87.3407 37.6359ZM87.5123 40.4167L86.6695 39.9705L86.6643 39.9803L86.6594 39.9902L87.5123 40.4167ZM86.7914 41.3436L86.286 42.1523L86.8761 42.5212L87.4074 42.0716L86.7914 41.3436ZM85.9674 41.0003L85.6326 41.8932L85.6575 41.9026L85.683 41.9105L85.9674 41.0003ZM84.7658 40.657L84.5231 41.5792L84.5461 41.5853L84.5694 41.5902L84.7658 40.657ZM83.4269 40.3824L83.2782 41.3244L83.2855 41.3254L83.4269 40.3824ZM80.4745 40.554L80.8201 41.4428L80.8411 41.4346L80.8618 41.4255L80.4745 40.554ZM80.1998 41.9616L79.6529 42.7428L79.6529 42.7428L80.1998 41.9616ZM81.5044 42.4079L81.7144 41.4776L81.7042 41.4754L81.5044 42.4079ZM82.5687 42.6482L82.7817 41.7187L82.7787 41.718L82.5687 42.6482ZM87.2377 44.7424L86.5719 45.4252L86.5806 45.4336L86.5894 45.4418L87.2377 44.7424ZM87.6916 48.1412C87.6916 49.6038 87.1624 50.6744 86.1141 51.4653L87.2627 52.9879C88.8235 51.8104 89.5989 50.1574 89.5989 48.1412H87.6916ZM86.1141 51.4653C85.0441 52.2724 83.3618 52.7492 80.9208 52.7492V54.6565C83.5607 54.6565 85.7235 54.1491 87.2627 52.9879L86.1141 51.4653ZM80.9208 52.7492C80.0043 52.7492 79.1648 52.6837 78.3997 52.5562L78.0862 54.4375C78.969 54.5846 79.9146 54.6565 80.9208 54.6565V52.7492ZM78.3997 52.5562C77.6379 52.4292 77.0141 52.2438 76.514 52.013L75.7148 53.7448C76.4048 54.0632 77.2 54.2898 78.0862 54.4375L78.3997 52.5562ZM76.5544 52.0328C76.0824 51.7874 75.7367 51.5023 75.4897 51.1894L73.9927 52.3712C74.4322 52.928 75.002 53.3753 75.6744 53.725L76.5544 52.0328ZM75.5089 51.2146C75.3215 50.9603 75.2142 50.6487 75.2142 50.2354H73.3069C73.3069 51.0122 73.5199 51.7305 73.9734 52.346L75.5089 51.2146ZM75.2142 50.2354C75.2142 49.8167 75.301 49.546 75.4125 49.3676L73.7951 48.3567C73.4489 48.9107 73.3069 49.5555 73.3069 50.2354H75.2142ZM75.4258 49.3457C75.6009 49.0481 75.7996 48.8215 76.017 48.6507L74.8386 47.151C74.4151 47.4838 74.0645 47.8981 73.7819 48.3786L75.4258 49.3457ZM74.9671 48.7359C75.6847 49.1318 76.4896 49.4842 77.3775 49.7962L78.0097 47.9967C77.204 47.7136 76.4984 47.4024 75.8885 47.0659L74.9671 48.7359ZM77.4065 49.8058C78.3876 50.1157 79.483 50.2621 80.6804 50.2621V48.3548C79.6349 48.3548 78.7392 48.2266 77.9808 47.9871L77.4065 49.8058ZM80.6804 50.2621C81.4545 50.2621 82.1857 50.1545 82.7615 49.8306L81.8265 48.1683C81.6699 48.2564 81.3254 48.3548 80.6804 48.3548V50.2621ZM82.7402 49.8423C83.338 49.5258 83.8313 48.9755 83.8313 48.1755H81.924C81.924 48.17 81.925 48.1546 81.9315 48.1338C81.9381 48.1128 81.9471 48.0968 81.9535 48.0878C81.965 48.0716 81.9495 48.1028 81.8478 48.1566L82.7402 49.8423ZM83.8313 48.1755C83.8313 47.5249 83.525 46.9803 82.9946 46.6268L81.9367 48.2137C81.9519 48.2239 81.9559 48.2287 81.9536 48.2263C81.9509 48.2235 81.9443 48.2156 81.9374 48.203C81.9305 48.1903 81.9265 48.1786 81.9246 48.1706C81.9228 48.1631 81.924 48.1638 81.924 48.1755H83.8313ZM82.9946 46.6268C82.5493 46.3298 81.9288 46.1546 81.2601 46.0351L80.9248 47.9127C81.5377 48.0222 81.8327 48.1444 81.9367 48.2137L82.9946 46.6268ZM81.2794 46.0388L80.2495 45.8328L79.8755 47.7031L80.9054 47.9091L81.2794 46.0388ZM80.2454 45.832C78.3293 45.4576 77.0206 44.8944 76.2116 44.2172L74.9873 45.6796C76.1466 46.6502 77.8132 47.3001 79.8796 47.7039L80.2454 45.832ZM76.2298 44.2328C75.5177 43.6054 75.1112 42.6901 75.1112 41.3436H73.2039C73.2039 43.1098 73.7587 44.5977 74.969 45.664L76.2298 44.2328ZM75.1112 41.3436C75.1112 40.6392 75.2621 40.0288 75.5483 39.4922L73.8654 38.5947C73.4191 39.4314 73.2039 40.3544 73.2039 41.3436H75.1112ZM75.5483 39.4922C75.8401 38.945 76.2502 38.4864 76.7931 38.1119L75.7103 36.5418C74.9258 37.0829 74.3059 37.7687 73.8654 38.5947L75.5483 39.4922ZM76.7931 38.1119C77.3548 37.7245 78.0431 37.4105 78.8734 37.1821L78.3677 35.3431C77.367 35.6183 76.4761 36.0137 75.7103 36.5418L76.7931 38.1119ZM78.8677 37.1837C79.7142 36.9566 80.6598 36.8386 81.7104 36.8386V34.9313C80.518 34.9313 79.4037 35.0651 78.3735 35.3415L78.8677 37.1837ZM81.7104 36.8386C82.5061 36.8386 83.2362 36.9032 83.9035 37.0283L84.255 35.1537C83.4574 35.0041 82.6083 34.9313 81.7104 34.9313V36.8386ZM83.9364 37.0338C84.6257 37.1383 85.1884 37.3007 85.6388 37.5072L86.4334 35.7733C85.7852 35.4762 85.0433 35.2725 84.2221 35.1481L83.9364 37.0338ZM85.6388 37.5072C86.0707 37.7052 86.3755 37.9482 86.5879 38.2213L88.0934 37.0504C87.665 36.4996 87.1 36.0789 86.4334 35.7733L85.6388 37.5072ZM86.6045 38.2421C86.7714 38.4447 86.8677 38.6941 86.8677 39.0434H88.775C88.775 38.2942 88.5508 37.6052 88.0768 37.0296L86.6045 38.2421ZM86.8677 39.0434C86.8677 39.4446 86.7898 39.7434 86.6695 39.9705L88.3552 40.8629C88.6469 40.3118 88.775 39.6951 88.775 39.0434H86.8677ZM86.6594 39.9902C86.5311 40.2468 86.3694 40.4515 86.1754 40.6156L87.4074 42.0716C87.8084 41.7323 88.1274 41.3189 88.3653 40.8432L86.6594 39.9902ZM87.2968 40.5349C87.0111 40.3564 86.6456 40.2131 86.2519 40.0901L85.683 41.9105C86.0216 42.0164 86.2055 42.102 86.286 42.1523L87.2968 40.5349ZM86.3023 40.1074C85.8854 39.9511 85.438 39.824 84.9623 39.7238L84.5694 41.5902C84.9634 41.6731 85.317 41.7749 85.6326 41.8932L86.3023 40.1074ZM85.0085 39.7348C84.5394 39.6113 84.0592 39.5129 83.5684 39.4393L83.2855 41.3254C83.7101 41.3891 84.1226 41.4738 84.5231 41.5792L85.0085 39.7348ZM83.5757 39.4404C83.1011 39.3654 82.6501 39.3257 82.2253 39.3257V41.233C82.533 41.233 82.883 41.2619 83.2782 41.3243L83.5757 39.4404ZM82.2253 39.3257C81.4149 39.3257 80.6766 39.4206 80.0871 39.6826L80.8618 41.4255C81.0963 41.3212 81.5252 41.233 82.2253 41.233V39.3257ZM80.1288 39.6652C79.8132 39.788 79.4974 39.9805 79.26 40.2838C79.0129 40.5995 78.9028 40.9691 78.9028 41.3436H80.8101C80.8101 41.3422 80.8102 41.3583 80.8015 41.3849C80.7924 41.4126 80.7781 41.4387 80.762 41.4593C80.7305 41.4995 80.7238 41.4803 80.8201 41.4428L80.1288 39.6652ZM78.9028 41.3436C78.9028 41.9444 79.2017 42.427 79.6529 42.7428L80.7467 41.1803C80.7289 41.1679 80.7511 41.179 80.776 41.2238C80.7879 41.2453 80.7972 41.2689 80.8031 41.2926C80.8089 41.3159 80.8101 41.3338 80.8101 41.3436H78.9028ZM79.6529 42.7428C80.0552 43.0244 80.6628 43.2028 81.3046 43.3404L81.7042 41.4754C81.4065 41.4116 81.1766 41.3493 81.0063 41.291C80.9218 41.2621 80.8584 41.2364 80.8125 41.215C80.79 41.2045 80.7734 41.1959 80.762 41.1895C80.7505 41.183 80.7459 41.1798 80.7467 41.1803L79.6529 42.7428ZM81.2943 43.3381L82.3586 43.5784L82.7787 41.718L81.7144 41.4777L81.2943 43.3381ZM82.3556 43.5778C84.4954 44.0681 85.8449 44.7163 86.5719 45.4252L87.9034 44.0596C86.7995 42.9833 85.0363 42.2354 82.7817 41.7187L82.3556 43.5778ZM86.5894 45.4418C87.3141 46.1135 87.6916 46.9836 87.6916 48.1412H89.5989C89.5989 46.5066 89.038 45.1107 87.8859 44.043L86.5894 45.4418Z" fill="black" mask="url(#path-1-inside-1_12_938)"/>
<mask id="path-3-inside-2_12_938" fill="white">
<path d="M10.0247 23.8424C10.986 23.8424 11.7184 23.625 12.2219 23.1901C12.7483 22.7323 13.0115 22.0457 13.0115 21.1302C13.0115 20.2605 12.7368 19.5968 12.1876 19.139C11.6611 18.6584 10.883 18.4181 9.85303 18.4181C9.48683 18.4181 9.17785 18.4295 8.92609 18.4524C8.69722 18.4524 8.4569 18.4753 8.20514 18.5211V23.8424H10.0247ZM8.23947 34.8627C7.98771 34.9313 7.58718 35 7.03788 35.0687C6.51147 35.1373 5.98506 35.1717 5.45865 35.1717C4.93224 35.1717 4.46305 35.1259 4.05107 35.0343C3.66199 34.9657 3.33012 34.8283 3.05547 34.6224C2.78082 34.4164 2.57483 34.1303 2.43751 33.7641C2.30019 33.3979 2.23152 32.9172 2.23152 32.3222V16.1522C2.23152 15.6716 2.3574 15.3054 2.60917 15.0536C2.88381 14.779 3.25001 14.5615 3.70776 14.4013C4.48593 14.1267 5.3671 13.9321 6.35126 13.8177C7.3583 13.6804 8.36535 13.6117 9.3724 13.6117C12.5309 13.6117 14.9455 14.2869 16.6163 15.6372C18.287 16.9876 19.1224 18.8186 19.1224 21.1302C19.1224 22.2517 18.9393 23.2702 18.5731 24.1857C18.2298 25.0783 17.7034 25.8565 16.9939 26.5202C16.3073 27.1611 15.4261 27.6646 14.3504 28.0308C13.2976 28.3741 12.0731 28.5457 10.677 28.5457H8.23947V34.8627ZM27.8222 35.5493C26.4718 35.5493 25.213 35.3662 24.0457 35C22.9014 34.6109 21.8943 34.0387 21.0246 33.2834C20.1778 32.5282 19.5026 31.5783 18.9991 30.434C18.5184 29.2896 18.2781 27.9507 18.2781 26.4172C18.2781 24.9066 18.5184 23.6135 18.9991 22.5378C19.5026 21.4392 20.1549 20.5466 20.9559 19.86C21.757 19.1505 22.6725 18.6355 23.7024 18.3151C24.7324 17.9718 25.7852 17.8001 26.8609 17.8001C28.0739 17.8001 29.1725 17.9832 30.1567 18.3494C31.1637 18.7156 32.022 19.2191 32.7315 19.86C33.4639 20.5008 34.0247 21.2675 34.4137 22.1602C34.8257 23.0528 35.0317 24.0255 35.0317 25.0783C35.0317 25.8565 34.8143 26.4515 34.3794 26.8635C33.9445 27.2755 33.338 27.5387 32.5599 27.6531L24.0801 28.9234C24.3318 29.6787 24.8468 30.2509 25.625 30.6399C26.4031 31.0061 27.2957 31.1892 28.3028 31.1892C29.2412 31.1892 30.1223 31.0748 30.9463 30.8459C31.7931 30.5942 32.4797 30.3081 33.0062 29.9877C33.3724 30.2165 33.6813 30.537 33.9331 30.9489C34.1849 31.3609 34.3107 31.7958 34.3107 32.2535C34.3107 33.2834 33.8301 34.0502 32.8688 34.5537C32.1364 34.9428 31.3125 35.206 30.397 35.3433C29.4815 35.4806 28.6232 35.5493 27.8222 35.5493ZM26.8609 22.0572C26.3116 22.0572 25.831 22.1487 25.419 22.3318C25.0299 22.5149 24.7095 22.7552 24.4577 23.0528C24.2059 23.3274 24.0114 23.6478 23.8741 24.014C23.7596 24.3573 23.691 24.7121 23.6681 25.0783L29.5387 24.117C29.4701 23.6593 29.2183 23.2015 28.7834 22.7438C28.3486 22.286 27.7077 22.0572 26.8609 22.0572ZM34.8885 26.6575C34.8885 25.147 35.1173 23.8424 35.5751 22.7438C36.0328 21.6223 36.6622 20.6954 37.4633 19.963C38.2873 19.2306 39.2371 18.6927 40.3128 18.3494C41.4114 17.9832 42.5901 17.8001 43.8489 17.8001C44.3066 17.8001 44.7529 17.8459 45.1878 17.9374C45.6227 18.0061 45.9774 18.0976 46.2521 18.2121V12.6504C46.4809 12.5818 46.8471 12.5131 47.3507 12.4444C47.8542 12.3529 48.3692 12.3071 48.8956 12.3071C49.3991 12.3071 49.8454 12.3415 50.2345 12.4101C50.6465 12.4788 50.9898 12.6161 51.2644 12.8221C51.5391 13.0281 51.7451 13.3142 51.8824 13.6804C52.0197 14.0237 52.0884 14.4814 52.0884 15.0536V31.3266C52.0884 32.4023 51.5848 33.2606 50.5778 33.9014C49.9141 34.3363 49.0558 34.7139 48.003 35.0343C46.9501 35.3776 45.7371 35.5493 44.3639 35.5493C42.8762 35.5493 41.5373 35.3433 40.3471 34.9313C39.1799 34.5194 38.1843 33.9243 37.3603 33.1461C36.5593 32.3679 35.9413 31.441 35.5064 30.3653C35.0945 29.2667 34.8885 28.0308 34.8885 26.6575ZM44.6385 22.3661C43.4026 22.3661 42.4528 22.7209 41.789 23.4304C41.1253 24.1399 40.7934 25.2156 40.7934 26.6575C40.7934 28.0766 41.1024 29.1523 41.7204 29.8847C42.3383 30.5942 43.2309 30.9489 44.3982 30.9489C44.8102 30.9489 45.1764 30.8917 45.4968 30.7773C45.8401 30.6399 46.1033 30.4912 46.2864 30.331V22.7781C45.8287 22.5035 45.2794 22.3661 44.6385 22.3661ZM59.3301 34.9657C59.1012 35.0343 58.735 35.103 58.2315 35.1717C57.7509 35.2403 57.2473 35.2746 56.7209 35.2746C56.2174 35.2746 55.7596 35.2403 55.3477 35.1717C54.9586 35.103 54.6267 34.9657 54.3521 34.7597C54.0774 34.5537 53.86 34.279 53.6998 33.9357C53.5625 33.5695 53.4938 33.1003 53.4938 32.5282V22.2288C53.4938 21.7024 53.5853 21.2561 53.7684 20.8899C53.9744 20.5008 54.2605 20.1575 54.6267 19.86C54.9929 19.5624 55.4392 19.2992 55.9656 19.0704C56.5149 18.8186 57.0986 18.6012 57.7165 18.4181C58.3345 18.235 58.9753 18.0976 59.6391 18.0061C60.3028 17.8917 60.9665 17.8344 61.6303 17.8344C62.7289 17.8344 63.5986 18.0519 64.2394 18.4867C64.8803 18.8987 65.2007 19.5853 65.2007 20.5466C65.2007 20.867 65.1549 21.1874 65.0634 21.5079C64.9718 21.8054 64.8574 22.0801 64.7201 22.3318C64.2394 22.3318 63.7474 22.3547 63.2438 22.4005C62.7403 22.4462 62.2482 22.5149 61.7676 22.6065C61.287 22.698 60.8292 22.801 60.3944 22.9154C59.9824 23.007 59.6276 23.1214 59.3301 23.2588V34.9657ZM82.0085 26.6575C82.0085 28.0766 81.791 29.3468 81.3562 30.4683C80.9213 31.5669 80.3034 32.4938 79.5023 33.2491C78.7241 34.0044 77.7857 34.5766 76.6872 34.9657C75.5886 35.3548 74.3641 35.5493 73.0137 35.5493C71.6634 35.5493 70.4389 35.3433 69.3403 34.9313C68.2417 34.5194 67.2919 33.9357 66.4908 33.1804C65.7126 32.4023 65.1061 31.4639 64.6713 30.3653C64.2364 29.2667 64.019 28.0308 64.019 26.6575C64.019 25.3072 64.2364 24.0827 64.6713 22.9841C65.1061 21.8855 65.7126 20.9586 66.4908 20.2033C67.2919 19.4251 68.2417 18.83 69.3403 18.4181C70.4389 18.0061 71.6634 17.8001 73.0137 17.8001C74.3641 17.8001 75.5886 18.0175 76.6872 18.4524C77.7857 18.8644 78.7241 19.4594 79.5023 20.2376C80.3034 20.9929 80.9213 21.9198 81.3562 23.0184C81.791 24.117 82.0085 25.3301 82.0085 26.6575ZM69.9926 26.6575C69.9926 28.0537 70.2558 29.1294 70.7822 29.8847C71.3315 30.6171 72.0868 30.9833 73.0481 30.9833C74.0093 30.9833 74.7417 30.6056 75.2452 29.8503C75.7717 29.095 76.0349 28.0308 76.0349 26.6575C76.0349 25.2843 75.7717 24.2315 75.2452 23.4991C74.7188 22.7438 73.975 22.3661 73.0137 22.3661C72.0524 22.3661 71.3086 22.7438 70.7822 23.4991C70.2558 24.2315 69.9926 25.2843 69.9926 26.6575Z"/>
</mask>
<path d="M10.0247 23.8424C10.986 23.8424 11.7184 23.625 12.2219 23.1901C12.7483 22.7323 13.0115 22.0457 13.0115 21.1302C13.0115 20.2605 12.7368 19.5968 12.1876 19.139C11.6611 18.6584 10.883 18.4181 9.85303 18.4181C9.48683 18.4181 9.17785 18.4295 8.92609 18.4524C8.69722 18.4524 8.4569 18.4753 8.20514 18.5211V23.8424H10.0247ZM8.23947 34.8627C7.98771 34.9313 7.58718 35 7.03788 35.0687C6.51147 35.1373 5.98506 35.1717 5.45865 35.1717C4.93224 35.1717 4.46305 35.1259 4.05107 35.0343C3.66199 34.9657 3.33012 34.8283 3.05547 34.6224C2.78082 34.4164 2.57483 34.1303 2.43751 33.7641C2.30019 33.3979 2.23152 32.9172 2.23152 32.3222V16.1522C2.23152 15.6716 2.3574 15.3054 2.60917 15.0536C2.88381 14.779 3.25001 14.5615 3.70776 14.4013C4.48593 14.1267 5.3671 13.9321 6.35126 13.8177C7.3583 13.6804 8.36535 13.6117 9.3724 13.6117C12.5309 13.6117 14.9455 14.2869 16.6163 15.6372C18.287 16.9876 19.1224 18.8186 19.1224 21.1302C19.1224 22.2517 18.9393 23.2702 18.5731 24.1857C18.2298 25.0783 17.7034 25.8565 16.9939 26.5202C16.3073 27.1611 15.4261 27.6646 14.3504 28.0308C13.2976 28.3741 12.0731 28.5457 10.677 28.5457H8.23947V34.8627ZM27.8222 35.5493C26.4718 35.5493 25.213 35.3662 24.0457 35C22.9014 34.6109 21.8943 34.0387 21.0246 33.2834C20.1778 32.5282 19.5026 31.5783 18.9991 30.434C18.5184 29.2896 18.2781 27.9507 18.2781 26.4172C18.2781 24.9066 18.5184 23.6135 18.9991 22.5378C19.5026 21.4392 20.1549 20.5466 20.9559 19.86C21.757 19.1505 22.6725 18.6355 23.7024 18.3151C24.7324 17.9718 25.7852 17.8001 26.8609 17.8001C28.0739 17.8001 29.1725 17.9832 30.1567 18.3494C31.1637 18.7156 32.022 19.2191 32.7315 19.86C33.4639 20.5008 34.0247 21.2675 34.4137 22.1602C34.8257 23.0528 35.0317 24.0255 35.0317 25.0783C35.0317 25.8565 34.8143 26.4515 34.3794 26.8635C33.9445 27.2755 33.338 27.5387 32.5599 27.6531L24.0801 28.9234C24.3318 29.6787 24.8468 30.2509 25.625 30.6399C26.4031 31.0061 27.2957 31.1892 28.3028 31.1892C29.2412 31.1892 30.1223 31.0748 30.9463 30.8459C31.7931 30.5942 32.4797 30.3081 33.0062 29.9877C33.3724 30.2165 33.6813 30.537 33.9331 30.9489C34.1849 31.3609 34.3107 31.7958 34.3107 32.2535C34.3107 33.2834 33.8301 34.0502 32.8688 34.5537C32.1364 34.9428 31.3125 35.206 30.397 35.3433C29.4815 35.4806 28.6232 35.5493 27.8222 35.5493ZM26.8609 22.0572C26.3116 22.0572 25.831 22.1487 25.419 22.3318C25.0299 22.5149 24.7095 22.7552 24.4577 23.0528C24.2059 23.3274 24.0114 23.6478 23.8741 24.014C23.7596 24.3573 23.691 24.7121 23.6681 25.0783L29.5387 24.117C29.4701 23.6593 29.2183 23.2015 28.7834 22.7438C28.3486 22.286 27.7077 22.0572 26.8609 22.0572ZM34.8885 26.6575C34.8885 25.147 35.1173 23.8424 35.5751 22.7438C36.0328 21.6223 36.6622 20.6954 37.4633 19.963C38.2873 19.2306 39.2371 18.6927 40.3128 18.3494C41.4114 17.9832 42.5901 17.8001 43.8489 17.8001C44.3066 17.8001 44.7529 17.8459 45.1878 17.9374C45.6227 18.0061 45.9774 18.0976 46.2521 18.2121V12.6504C46.4809 12.5818 46.8471 12.5131 47.3507 12.4444C47.8542 12.3529 48.3692 12.3071 48.8956 12.3071C49.3991 12.3071 49.8454 12.3415 50.2345 12.4101C50.6465 12.4788 50.9898 12.6161 51.2644 12.8221C51.5391 13.0281 51.7451 13.3142 51.8824 13.6804C52.0197 14.0237 52.0884 14.4814 52.0884 15.0536V31.3266C52.0884 32.4023 51.5848 33.2606 50.5778 33.9014C49.9141 34.3363 49.0558 34.7139 48.003 35.0343C46.9501 35.3776 45.7371 35.5493 44.3639 35.5493C42.8762 35.5493 41.5373 35.3433 40.3471 34.9313C39.1799 34.5194 38.1843 33.9243 37.3603 33.1461C36.5593 32.3679 35.9413 31.441 35.5064 30.3653C35.0945 29.2667 34.8885 28.0308 34.8885 26.6575ZM44.6385 22.3661C43.4026 22.3661 42.4528 22.7209 41.789 23.4304C41.1253 24.1399 40.7934 25.2156 40.7934 26.6575C40.7934 28.0766 41.1024 29.1523 41.7204 29.8847C42.3383 30.5942 43.2309 30.9489 44.3982 30.9489C44.8102 30.9489 45.1764 30.8917 45.4968 30.7773C45.8401 30.6399 46.1033 30.4912 46.2864 30.331V22.7781C45.8287 22.5035 45.2794 22.3661 44.6385 22.3661ZM59.3301 34.9657C59.1012 35.0343 58.735 35.103 58.2315 35.1717C57.7509 35.2403 57.2473 35.2746 56.7209 35.2746C56.2174 35.2746 55.7596 35.2403 55.3477 35.1717C54.9586 35.103 54.6267 34.9657 54.3521 34.7597C54.0774 34.5537 53.86 34.279 53.6998 33.9357C53.5625 33.5695 53.4938 33.1003 53.4938 32.5282V22.2288C53.4938 21.7024 53.5853 21.2561 53.7684 20.8899C53.9744 20.5008 54.2605 20.1575 54.6267 19.86C54.9929 19.5624 55.4392 19.2992 55.9656 19.0704C56.5149 18.8186 57.0986 18.6012 57.7165 18.4181C58.3345 18.235 58.9753 18.0976 59.6391 18.0061C60.3028 17.8917 60.9665 17.8344 61.6303 17.8344C62.7289 17.8344 63.5986 18.0519 64.2394 18.4867C64.8803 18.8987 65.2007 19.5853 65.2007 20.5466C65.2007 20.867 65.1549 21.1874 65.0634 21.5079C64.9718 21.8054 64.8574 22.0801 64.7201 22.3318C64.2394 22.3318 63.7474 22.3547 63.2438 22.4005C62.7403 22.4462 62.2482 22.5149 61.7676 22.6065C61.287 22.698 60.8292 22.801 60.3944 22.9154C59.9824 23.007 59.6276 23.1214 59.3301 23.2588V34.9657ZM82.0085 26.6575C82.0085 28.0766 81.791 29.3468 81.3562 30.4683C80.9213 31.5669 80.3034 32.4938 79.5023 33.2491C78.7241 34.0044 77.7857 34.5766 76.6872 34.9657C75.5886 35.3548 74.3641 35.5493 73.0137 35.5493C71.6634 35.5493 70.4389 35.3433 69.3403 34.9313C68.2417 34.5194 67.2919 33.9357 66.4908 33.1804C65.7126 32.4023 65.1061 31.4639 64.6713 30.3653C64.2364 29.2667 64.019 28.0308 64.019 26.6575C64.019 25.3072 64.2364 24.0827 64.6713 22.9841C65.1061 21.8855 65.7126 20.9586 66.4908 20.2033C67.2919 19.4251 68.2417 18.83 69.3403 18.4181C70.4389 18.0061 71.6634 17.8001 73.0137 17.8001C74.3641 17.8001 75.5886 18.0175 76.6872 18.4524C77.7857 18.8644 78.7241 19.4594 79.5023 20.2376C80.3034 20.9929 80.9213 21.9198 81.3562 23.0184C81.791 24.117 82.0085 25.3301 82.0085 26.6575ZM69.9926 26.6575C69.9926 28.0537 70.2558 29.1294 70.7822 29.8847C71.3315 30.6171 72.0868 30.9833 73.0481 30.9833C74.0093 30.9833 74.7417 30.6056 75.2452 29.8503C75.7717 29.095 76.0349 28.0308 76.0349 26.6575C76.0349 25.2843 75.7717 24.2315 75.2452 23.4991C74.7188 22.7438 73.975 22.3661 73.0137 22.3661C72.0524 22.3661 71.3086 22.7438 70.7822 23.4991C70.2558 24.2315 69.9926 25.2843 69.9926 26.6575Z" fill="#0D0D0D"/>
<path d="M12.2219 23.1901L12.8452 23.9118L12.8476 23.9097L12.2219 23.1901ZM12.1876 19.139L11.5445 19.8433L11.5605 19.8578L11.577 19.8716L12.1876 19.139ZM8.92609 18.4524V19.406H8.96935L9.01243 19.4021L8.92609 18.4524ZM8.20514 18.5211L8.03455 17.5828L7.2515 17.7252V18.5211H8.20514ZM8.20514 23.8424H7.2515V24.796H8.20514V23.8424ZM8.23947 34.8627L8.49039 35.7827L9.19311 35.5911V34.8627H8.23947ZM7.03788 35.0687L6.91959 34.1224L6.91454 34.123L7.03788 35.0687ZM4.05107 35.0343L4.25795 34.1034L4.23746 34.0988L4.2168 34.0952L4.05107 35.0343ZM3.05547 34.6224L2.48328 35.3853L2.48328 35.3853L3.05547 34.6224ZM2.43751 33.7641L1.54459 34.0989L1.54459 34.0989L2.43751 33.7641ZM2.60917 15.0536L3.28349 15.7279L3.28349 15.7279L2.60917 15.0536ZM3.70776 14.4013L4.0228 15.3014L4.02515 15.3006L3.70776 14.4013ZM6.35126 13.8177L6.4614 14.765L6.47077 14.7639L6.48011 14.7626L6.35126 13.8177ZM16.6163 15.6372L16.0168 16.3789L16.6163 15.6372ZM18.5731 24.1857L17.6876 23.8315L17.6831 23.8434L18.5731 24.1857ZM16.9939 26.5202L17.6446 27.2174L17.6454 27.2166L16.9939 26.5202ZM14.3504 28.0308L14.6461 28.9375L14.6577 28.9335L14.3504 28.0308ZM8.23947 28.5457V27.5921H7.28583V28.5457H8.23947ZM10.0247 24.796C11.1149 24.796 12.1054 24.5507 12.8452 23.9118L11.5986 22.4684C11.3313 22.6992 10.857 22.8887 10.0247 22.8887V24.796ZM12.8476 23.9097C13.6427 23.2183 13.9651 22.2301 13.9651 21.1302H12.0579C12.0579 21.8613 11.8538 22.2464 11.5961 22.4705L12.8476 23.9097ZM13.9651 21.1302C13.9651 20.0447 13.6116 19.0844 12.7981 18.4064L11.577 19.8716C11.8621 20.1091 12.0579 20.4763 12.0579 21.1302H13.9651ZM12.8306 18.4348C12.064 17.7348 11.0162 17.4644 9.85303 17.4644V19.3717C10.7498 19.3717 11.2583 19.5819 11.5445 19.8433L12.8306 18.4348ZM9.85303 17.4644C9.46956 17.4644 9.12979 17.4763 8.83976 17.5027L9.01243 19.4021C9.22592 19.3827 9.50411 19.3717 9.85303 19.3717V17.4644ZM8.92609 17.4988C8.63377 17.4988 8.33611 17.528 8.03455 17.5828L8.37573 19.4593C8.57769 19.4226 8.76067 19.406 8.92609 19.406V17.4988ZM7.2515 18.5211V23.8424H9.15878V18.5211H7.2515ZM8.20514 24.796H10.0247V22.8887H8.20514V24.796ZM7.98855 33.9426C7.80608 33.9924 7.4622 34.0546 6.9196 34.1224L7.15617 36.0149C7.71216 35.9454 8.16934 35.8703 8.49039 35.7827L7.98855 33.9426ZM6.91454 34.123C6.42868 34.1864 5.94347 34.218 5.45865 34.218V36.1253C6.02665 36.1253 6.59426 36.0882 7.16122 36.0143L6.91454 34.123ZM5.45865 34.218C4.98551 34.218 4.58774 34.1767 4.25795 34.1034L3.8442 35.9653C4.33835 36.0751 4.87896 36.1253 5.45865 36.1253V34.218ZM4.2168 34.0952C3.95284 34.0486 3.76563 33.9629 3.62766 33.8594L2.48328 35.3853C2.89461 35.6938 3.37113 35.8827 3.88534 35.9735L4.2168 34.0952ZM3.62766 33.8594C3.51806 33.7772 3.413 33.6494 3.33043 33.4292L1.54459 34.0989C1.73667 34.6111 2.04359 35.0555 2.48328 35.3853L3.62766 33.8594ZM3.33043 33.4292C3.24851 33.2108 3.18517 32.8563 3.18517 32.3222H1.27788C1.27788 32.9782 1.35186 33.585 1.54459 34.0989L3.33043 33.4292ZM3.18517 32.3222V16.1522H1.27788V32.3222H3.18517ZM3.18517 16.1522C3.18517 15.8335 3.26603 15.7454 3.28349 15.7279L1.93484 14.3793C1.44878 14.8653 1.27788 15.5097 1.27788 16.1522H3.18517ZM3.28349 15.7279C3.43488 15.5766 3.66748 15.4258 4.0228 15.3014L3.39273 13.5012C2.83254 13.6973 2.33275 13.9814 1.93484 14.3793L3.28349 15.7279ZM4.02515 15.3006C4.72447 15.0538 5.5343 14.8728 6.4614 14.765L6.24111 12.8704C5.1999 12.9915 4.2474 13.1996 3.39037 13.502L4.02515 15.3006ZM6.48011 14.7626C7.44485 14.631 8.40885 14.5653 9.3724 14.5653V12.6581C8.32186 12.6581 7.27176 12.7297 6.22241 12.8728L6.48011 14.7626ZM9.3724 14.5653C12.4119 14.5653 14.5795 15.2172 16.0168 16.3789L17.2157 14.8956C15.3115 13.3565 12.6499 12.6581 9.3724 12.6581V14.5653ZM16.0168 16.3789C17.4448 17.533 18.1688 19.0815 18.1688 21.1302H20.0761C20.0761 18.5557 19.1293 16.4422 17.2157 14.8956L16.0168 16.3789ZM18.1688 21.1302C18.1688 22.1469 18.0031 23.0431 17.6877 23.8315L19.4586 24.5399C19.8756 23.4973 20.0761 22.3565 20.0761 21.1302H18.1688ZM17.6831 23.8434C17.3923 24.5992 16.9484 25.2569 16.3424 25.8238L17.6454 27.2166C18.4584 26.456 19.0673 25.5574 19.4632 24.528L17.6831 23.8434ZM16.3432 25.823C15.7737 26.3546 15.0174 26.7963 14.0431 27.128L14.6577 28.9335C15.8349 28.5328 16.8409 27.9675 17.6446 27.2174L16.3432 25.823ZM14.0548 27.1241C13.1185 27.4294 11.9977 27.5921 10.677 27.5921V29.4994C12.1486 29.4994 13.4766 29.3188 14.6461 28.9374L14.0548 27.1241ZM10.677 27.5921H8.23947V29.4994H10.677V27.5921ZM7.28583 28.5457V34.8627H9.19311V28.5457H7.28583ZM24.0457 35L23.7388 35.9029L23.7495 35.9065L23.7603 35.9099L24.0457 35ZM21.0246 33.2834L20.3898 33.9952L20.3993 34.0035L21.0246 33.2834ZM18.9991 30.434L18.1198 30.8032L18.1229 30.8107L18.1262 30.818L18.9991 30.434ZM18.9991 22.5378L18.1321 22.1404L18.1284 22.1488L18.9991 22.5378ZM20.9559 19.86L21.5766 20.584L21.5824 20.579L21.5882 20.5739L20.9559 19.86ZM23.7024 18.3151L23.9857 19.2257L23.9949 19.2228L24.004 19.2198L23.7024 18.3151ZM30.1567 18.3494L29.8241 19.2432L29.8308 19.2456L30.1567 18.3494ZM32.7315 19.86L32.0923 20.5677L32.0979 20.5727L32.1035 20.5777L32.7315 19.86ZM34.4137 22.1602L33.5395 22.5412L33.5436 22.5505L33.5479 22.5598L34.4137 22.1602ZM34.3794 26.8635L33.7235 26.1712L33.7235 26.1712L34.3794 26.8635ZM32.5599 27.6531L32.4211 26.7096L32.4186 26.71L32.5599 27.6531ZM24.0801 28.9234L23.9388 27.9803L22.8165 28.1484L23.1754 29.225L24.0801 28.9234ZM25.625 30.6399L25.1985 31.4929L25.2086 31.498L25.2189 31.5028L25.625 30.6399ZM30.9463 30.8459L31.2015 31.7648L31.2098 31.7625L31.2181 31.76L30.9463 30.8459ZM33.0062 29.9877L33.5116 29.179L33.0128 28.8672L32.5103 29.1731L33.0062 29.9877ZM33.9331 30.9489L34.7468 30.4516L34.7468 30.4516L33.9331 30.9489ZM32.8688 34.5537L32.4263 33.7089L32.4214 33.7115L32.8688 34.5537ZM30.397 35.3433L30.2555 34.4002L30.2555 34.4002L30.397 35.3433ZM25.419 22.3318L25.0317 21.4604L25.0223 21.4645L25.0129 21.4689L25.419 22.3318ZM24.4577 23.0528L25.1607 23.6972L25.1735 23.6832L25.1857 23.6688L24.4577 23.0528ZM23.8741 24.014L22.9812 23.6792L22.975 23.6957L22.9694 23.7125L23.8741 24.014ZM23.6681 25.0783L22.7163 25.0188L22.6417 26.2127L23.8222 26.0194L23.6681 25.0783ZM29.5387 24.117L29.6928 25.0581L30.6214 24.9061L30.4818 23.9756L29.5387 24.117ZM28.7834 22.7438L29.4748 22.087L29.4748 22.087L28.7834 22.7438ZM27.8222 34.5957C26.5587 34.5957 25.397 34.4245 24.3312 34.0901L23.7603 35.9099C25.029 36.3079 26.3849 36.5029 27.8222 36.5029V34.5957ZM24.3527 34.0971C23.3194 33.7458 22.4218 33.2337 21.6499 32.5634L20.3993 34.0035C21.3669 34.8437 22.4833 35.476 23.7388 35.9029L24.3527 34.0971ZM21.6594 32.5717C20.9244 31.9163 20.3261 31.0821 19.8719 30.0499L18.1262 30.818C18.6791 32.0746 19.4311 33.1401 20.3898 33.9951L21.6594 32.5717ZM19.8783 30.0647C19.4569 29.0613 19.2317 27.8528 19.2317 26.4172H17.3245C17.3245 28.0485 17.58 29.5179 18.1198 30.8032L19.8783 30.0647ZM19.2317 26.4172C19.2317 25.0043 19.4569 23.8508 19.8697 22.9268L18.1284 22.1488C17.5799 23.3762 17.3245 24.809 17.3245 26.4172H19.2317ZM19.866 22.9351C20.3204 21.9438 20.8945 21.1687 21.5766 20.584L20.3353 19.1359C19.4153 19.9245 18.6848 20.9346 18.1321 22.1405L19.866 22.9351ZM21.5882 20.5739C22.2874 19.9546 23.0837 19.5063 23.9857 19.2257L23.4191 17.4045C22.2613 17.7647 21.2266 18.3463 20.3236 19.1461L21.5882 20.5739ZM24.004 19.2198C24.9376 18.9086 25.8886 18.7537 26.8609 18.7537V16.8465C25.6817 16.8465 24.5271 17.0349 23.4009 17.4104L24.004 19.2198ZM26.8609 18.7537C27.9777 18.7537 28.9615 18.9222 29.8241 19.2432L30.4892 17.4556C29.3835 17.0442 28.1701 16.8465 26.8609 16.8465V18.7537ZM29.8308 19.2456C30.7361 19.5748 31.4845 20.0187 32.0923 20.5677L33.3707 19.1523C32.5595 18.4196 31.5913 17.8564 30.4826 17.4532L29.8308 19.2456ZM32.1035 20.5777C32.73 21.1258 33.2066 21.7775 33.5395 22.5412L35.2879 21.7791C34.8427 20.7576 34.1979 19.8759 33.3595 19.1423L32.1035 20.5777ZM33.5479 22.5598C33.898 23.3184 34.0781 24.1535 34.0781 25.0783H35.9853C35.9853 23.8974 35.7534 22.7872 35.2796 21.7605L33.5479 22.5598ZM34.0781 25.0783C34.0781 25.677 33.9158 25.9891 33.7235 26.1712L35.0353 27.5558C35.7127 26.914 35.9853 26.036 35.9853 25.0783H34.0781ZM33.7235 26.1712C33.4697 26.4117 33.0654 26.6149 32.4211 26.7096L32.6986 28.5966C33.6107 28.4625 34.4194 28.1393 35.0353 27.5558L33.7235 26.1712ZM32.4186 26.71L23.9388 27.9803L24.2213 29.8665L32.7011 28.5963L32.4186 26.71ZM23.1754 29.225C23.5149 30.2436 24.2172 31.0023 25.1985 31.4929L26.0514 29.787C25.4764 29.4995 25.1487 29.1137 24.9848 28.6218L23.1754 29.225ZM25.2189 31.5028C26.144 31.9382 27.1792 32.1429 28.3028 32.1429V30.2356C27.4123 30.2356 26.6622 30.0741 26.031 29.7771L25.2189 31.5028ZM28.3028 32.1429C29.3191 32.1429 30.2868 32.0189 31.2015 31.7648L30.6911 29.9271C29.9579 30.1307 29.1632 30.2356 28.3028 30.2356V32.1429ZM31.2181 31.76C32.1126 31.4941 32.8825 31.1794 33.502 30.8023L32.5103 29.1731C32.077 29.4368 31.4736 29.6943 30.6745 29.9318L31.2181 31.76ZM32.5007 30.7963C32.7272 30.9379 32.9356 31.1455 33.1194 31.4462L34.7468 30.4516C34.4271 29.9284 34.0175 29.4952 33.5116 29.179L32.5007 30.7963ZM33.1194 31.4462C33.2849 31.717 33.3571 31.981 33.3571 32.2535H35.2644C35.2644 31.6105 35.0849 31.0048 34.7468 30.4516L33.1194 31.4462ZM33.3571 32.2535C33.3571 32.6147 33.2748 32.8831 33.1423 33.0945C33.008 33.3086 32.7872 33.5199 32.4263 33.7089L33.3113 35.3985C33.9117 35.084 34.4119 34.6601 34.7583 34.1075C35.1064 33.5522 35.2644 32.9223 35.2644 32.2535H33.3571ZM32.4214 33.7115C31.795 34.0443 31.0764 34.2771 30.2555 34.4002L30.5385 36.2864C31.5486 36.1349 32.4779 35.8412 33.3162 35.3959L32.4214 33.7115ZM30.2555 34.4002C29.3798 34.5316 28.5692 34.5957 27.8222 34.5957V36.5029C28.6772 36.5029 29.5832 36.4297 30.5385 36.2864L30.2555 34.4002ZM26.8609 21.1035C26.2066 21.1035 25.5892 21.2126 25.0317 21.4604L25.8063 23.2033C26.0727 23.0848 26.4165 23.0108 26.8609 23.0108V21.1035ZM25.0129 21.4689C24.513 21.7042 24.0786 22.0244 23.7297 22.4368L25.1857 23.6688C25.3403 23.486 25.5468 23.3256 25.825 23.1947L25.0129 21.4689ZM23.7547 22.4084C23.4163 22.7775 23.1592 23.2044 22.9812 23.6792L24.767 24.3489C24.8636 24.0913 24.9956 23.8773 25.1607 23.6972L23.7547 22.4084ZM22.9694 23.7125C22.8285 24.1352 22.7443 24.5714 22.7163 25.0188L24.6199 25.1378C24.6377 24.8528 24.6908 24.5795 24.7788 24.3156L22.9694 23.7125ZM23.8222 26.0194L29.6928 25.0581L29.3846 23.1759L23.514 24.1372L23.8222 26.0194ZM30.4818 23.9756C30.3753 23.2653 29.9965 22.6361 29.4748 22.087L28.092 23.4006C28.4401 23.767 28.5648 24.0533 28.5956 24.2585L30.4818 23.9756ZM29.4748 22.087C28.8047 21.3816 27.8764 21.1035 26.8609 21.1035V23.0108C27.539 23.0108 27.8924 23.1905 28.092 23.4006L29.4748 22.087ZM35.5751 22.7438L36.4554 23.1106L36.458 23.1042L35.5751 22.7438ZM37.4633 19.963L36.8297 19.2501L36.8198 19.2591L37.4633 19.963ZM40.3128 18.3494L40.6028 19.258L40.6144 19.2541L40.3128 18.3494ZM45.1878 17.9374L44.9913 18.8706L45.0151 18.8756L45.0391 18.8794L45.1878 17.9374ZM46.2521 18.2121L45.8853 19.0924L47.2057 19.6425V18.2121H46.2521ZM46.2521 12.6504L45.978 11.737L45.2984 11.9409V12.6504H46.2521ZM47.3507 12.4444L47.4795 13.3893L47.5005 13.3865L47.5213 13.3827L47.3507 12.4444ZM50.2345 12.4101L50.0687 13.3493L50.0777 13.3508L50.2345 12.4101ZM51.2644 12.8221L50.6922 13.585L50.6922 13.585L51.2644 12.8221ZM51.8824 13.6804L50.9895 14.0152L50.9931 14.0249L50.9969 14.0345L51.8824 13.6804ZM50.5778 33.9014L50.0658 33.0968L50.0552 33.1037L50.5778 33.9014ZM48.003 35.0343L47.7253 34.122L47.7163 34.1247L47.7073 34.1277L48.003 35.0343ZM40.3471 34.9313L40.0297 35.8306L40.0352 35.8325L40.3471 34.9313ZM37.3603 33.1461L36.6958 33.8302L36.7055 33.8394L37.3603 33.1461ZM35.5064 30.3653L34.6135 30.7001L34.6178 30.7115L34.6223 30.7227L35.5064 30.3653ZM41.789 23.4304L42.4854 24.0819L42.4854 24.0819L41.789 23.4304ZM41.7204 29.8847L40.9915 30.4996L40.9963 30.5054L41.0012 30.511L41.7204 29.8847ZM45.4968 30.7773L45.8175 31.6754L45.8344 31.6693L45.851 31.6627L45.4968 30.7773ZM46.2864 30.331L46.9144 31.0487L47.24 30.7637V30.331H46.2864ZM46.2864 22.7781H47.24V22.2382L46.777 21.9604L46.2864 22.7781ZM35.8421 26.6575C35.8421 25.2403 36.0572 24.0662 36.4554 23.1106L34.6948 22.377C34.1775 23.6185 33.9348 25.0536 33.9348 26.6575H35.8421ZM36.458 23.1042C36.8686 22.0982 37.4215 21.2933 38.1068 20.6668L36.8198 19.2591C35.903 20.0974 35.1971 21.1464 34.6922 22.3834L36.458 23.1042ZM38.0969 20.6757C38.8188 20.034 39.6508 19.5617 40.6027 19.2579L40.0228 17.4409C38.8233 17.8237 37.7557 18.4271 36.8297 19.2502L38.0969 20.6757ZM40.6144 19.2541C41.6076 18.923 42.6837 18.7537 43.8489 18.7537V16.8465C42.4965 16.8465 41.2152 17.0434 40.0112 17.4447L40.6144 19.2541ZM43.8489 18.7537C44.2426 18.7537 44.623 18.7931 44.9913 18.8706L45.3843 17.0042C44.8829 16.8987 44.3707 16.8465 43.8489 16.8465V18.7537ZM45.0391 18.8794C45.4312 18.9413 45.7053 19.0174 45.8853 19.0924L46.6189 17.3318C46.2495 17.1779 45.8142 17.0709 45.3365 16.9955L45.0391 18.8794ZM47.2057 18.2121V12.6504H45.2984V18.2121H47.2057ZM46.5261 13.5639C46.6793 13.5179 46.9832 13.457 47.4795 13.3893L47.2218 11.4996C46.7111 11.5692 46.2826 11.6456 45.978 11.737L46.5261 13.5639ZM47.5213 13.3827C47.9669 13.3017 48.4247 13.2608 48.8956 13.2608V11.3535C48.3136 11.3535 47.7415 11.4041 47.1801 11.5062L47.5213 13.3827ZM48.8956 13.2608C49.3578 13.2608 49.7469 13.2924 50.0688 13.3492L50.4002 11.471C49.9439 11.3905 49.4404 11.3535 48.8956 11.3535V13.2608ZM50.0777 13.3508C50.3712 13.3997 50.5635 13.4885 50.6922 13.585L51.8366 12.0592C51.416 11.7437 50.9217 11.5579 50.3913 11.4694L50.0777 13.3508ZM50.6922 13.585C50.8018 13.6672 50.9069 13.795 50.9895 14.0152L52.7753 13.3455C52.5832 12.8333 52.2763 12.3889 51.8366 12.0592L50.6922 13.585ZM50.9969 14.0345C51.0715 14.2208 51.1347 14.5435 51.1347 15.0536H53.042C53.042 14.4194 52.9679 13.8265 52.7678 13.3262L50.9969 14.0345ZM51.1347 15.0536V31.3266H53.042V15.0536H51.1347ZM51.1347 31.3266C51.1347 32.0359 50.8336 32.6083 50.0658 33.0969L51.0898 34.706C52.3361 33.9128 53.042 32.7686 53.042 31.3266H51.1347ZM50.0552 33.1037C49.4902 33.4739 48.7223 33.8186 47.7253 34.122L48.2806 35.9467C49.3893 35.6092 50.338 35.1986 51.1004 34.6991L50.0552 33.1037ZM47.7073 34.1277C46.7697 34.4334 45.6598 34.5957 44.3639 34.5957V36.5029C45.8144 36.5029 47.1306 36.3219 48.2986 35.941L47.7073 34.1277ZM44.3639 34.5957C42.9636 34.5957 41.7326 34.4018 40.6591 34.0302L40.0352 35.8325C41.342 36.2849 42.7888 36.5029 44.3639 36.5029V34.5957ZM40.6645 34.0321C39.6112 33.6603 38.7336 33.1314 38.0151 32.4528L36.7055 33.8394C37.6349 34.7172 38.7485 35.3784 40.0297 35.8306L40.6645 34.0321ZM38.0248 32.4621C37.3226 31.7799 36.7777 30.9655 36.3906 30.0079L34.6223 30.7227C35.1049 31.9165 35.7959 32.9559 36.6958 33.8301L38.0248 32.4621ZM36.3994 30.0304C36.0337 29.0555 35.8421 27.9355 35.8421 26.6575H33.9348C33.9348 28.126 34.1552 29.4779 34.6135 30.7001L36.3994 30.0304ZM44.6385 21.4125C43.2149 21.4125 41.9829 21.8273 41.0926 22.7789L42.4854 24.0819C42.9227 23.6145 43.5903 23.3198 44.6385 23.3198V21.4125ZM41.0926 22.7789C40.1989 23.7342 39.8398 25.0888 39.8398 26.6575H41.7471C41.7471 25.3425 42.0517 24.5456 42.4854 24.0819L41.0926 22.7789ZM39.8398 26.6575C39.8398 28.1967 40.1727 29.5292 40.9915 30.4996L42.4492 29.2697C42.0321 28.7754 41.7471 27.9564 41.7471 26.6575H39.8398ZM41.0012 30.511C41.8427 31.4771 43.027 31.9026 44.3982 31.9026V29.9953C43.4348 29.9953 42.834 29.7112 42.4395 29.2583L41.0012 30.511ZM44.3982 31.9026C44.8971 31.9026 45.3751 31.8334 45.8175 31.6754L45.176 29.8792C44.9777 29.95 44.7232 29.9953 44.3982 29.9953V31.9026ZM45.851 31.6627C46.2478 31.5039 46.6195 31.3067 46.9144 31.0487L45.6584 29.6133C45.5871 29.6757 45.4324 29.7759 45.1426 29.8918L45.851 31.6627ZM47.24 30.331V22.7781H45.3328V30.331H47.24ZM46.777 21.9604C46.1438 21.5805 45.4174 21.4125 44.6385 21.4125V23.3198C45.1413 23.3198 45.5135 23.4265 45.7958 23.5959L46.777 21.9604ZM59.3301 34.9657L59.6041 35.8791L60.2837 35.6752V34.9657H59.3301ZM58.2315 35.1717L58.1026 34.2267L58.0966 34.2276L58.2315 35.1717ZM55.3477 35.1717L55.1819 36.1108L55.1909 36.1123L55.3477 35.1717ZM54.3521 34.7597L54.9243 33.9968L54.9243 33.9968L54.3521 34.7597ZM53.6998 33.9357L52.8069 34.2706L52.8199 34.3054L52.8356 34.339L53.6998 33.9357ZM53.7684 20.8899L52.9256 20.4437L52.9204 20.4535L52.9155 20.4634L53.7684 20.8899ZM54.6267 19.86L55.2281 20.6001L55.2281 20.6001L54.6267 19.86ZM55.9656 19.0704L56.3459 19.9449L56.3545 19.9412L56.363 19.9373L55.9656 19.0704ZM57.7165 18.4181L57.9874 19.3324L57.9874 19.3324L57.7165 18.4181ZM59.6391 18.0061L59.7694 18.9508L59.7853 18.9486L59.8011 18.9459L59.6391 18.0061ZM64.2394 18.4867L63.704 19.2758L63.7138 19.2825L63.7237 19.2889L64.2394 18.4867ZM65.0634 21.5079L65.9749 21.7883L65.9777 21.7791L65.9803 21.7698L65.0634 21.5079ZM64.7201 22.3318V23.2855H65.2862L65.5573 22.7885L64.7201 22.3318ZM63.2438 22.4005L63.3302 23.3502L63.3302 23.3502L63.2438 22.4005ZM61.7676 22.6065L61.5892 21.6697L61.5892 21.6697L61.7676 22.6065ZM60.3944 22.9154L60.6012 23.8464L60.6192 23.8424L60.637 23.8377L60.3944 22.9154ZM59.3301 23.2588L58.9305 22.3929L58.3764 22.6486V23.2588H59.3301ZM59.0561 34.0522C58.9029 34.0982 58.599 34.1591 58.1026 34.2268L58.3603 36.1166C58.871 36.0469 59.2996 35.9705 59.6041 35.8791L59.0561 34.0522ZM58.0966 34.2276C57.6642 34.2894 57.2059 34.321 56.7209 34.321V36.2283C57.2887 36.2283 57.8375 36.1913 58.3664 36.1157L58.0966 34.2276ZM56.7209 34.321C56.2596 34.321 55.8554 34.2895 55.5045 34.231L55.1909 36.1123C55.6639 36.1912 56.1752 36.2283 56.7209 36.2283V34.321ZM55.5134 34.2325C55.2494 34.1859 55.0622 34.1002 54.9243 33.9968L53.7799 35.5226C54.1912 35.8311 54.6677 36.02 55.1819 36.1108L55.5134 34.2325ZM54.9243 33.9968C54.7876 33.8943 54.6649 33.7487 54.564 33.5325L52.8356 34.339C53.0551 34.8094 53.3672 35.2131 53.7799 35.5226L54.9243 33.9968ZM54.5927 33.6009C54.5095 33.3791 54.4474 33.0342 54.4474 32.5282H52.5402C52.5402 33.1665 52.6154 33.76 52.8069 34.2706L54.5927 33.6009ZM54.4474 32.5282V22.2288H52.5402V32.5282H54.4474ZM54.4474 22.2288C54.4474 21.8095 54.5207 21.5179 54.6214 21.3164L52.9155 20.4634C52.65 20.9944 52.5402 21.5953 52.5402 22.2288H54.4474ZM54.6113 21.3361C54.7531 21.0682 54.9541 20.8227 55.2281 20.6001L54.0254 19.1198C53.567 19.4923 53.1957 19.9335 52.9256 20.4437L54.6113 21.3361ZM55.2281 20.6001C55.5144 20.3675 55.8824 20.1464 56.3459 19.9449L55.5854 18.1958C54.996 18.452 54.4715 18.7574 54.0254 19.1198L55.2281 20.6001ZM56.363 19.9373C56.8687 19.7055 57.4098 19.5036 57.9874 19.3324L57.4456 17.5037C56.7873 17.6988 56.1612 17.9317 55.5683 18.2034L56.363 19.9373ZM57.9874 19.3324C58.5576 19.1635 59.1513 19.036 59.7694 18.9508L59.5088 17.0614C58.7993 17.1592 58.1114 17.3064 57.4456 17.5037L57.9874 19.3324ZM59.8011 18.9459C60.4121 18.8405 61.0216 18.7881 61.6303 18.7881V16.8808C60.9114 16.8808 60.1935 16.9428 59.477 17.0663L59.8011 18.9459ZM61.6303 18.7881C62.6147 18.7881 63.2745 18.9844 63.704 19.2758L64.7749 17.6976C63.9227 17.1193 62.8431 16.8808 61.6303 16.8808V18.7881ZM63.7237 19.2889C64.0192 19.4789 64.2471 19.8132 64.2471 20.5466H66.1544C66.1544 19.3575 65.7413 18.3185 64.7551 17.6845L63.7237 19.2889ZM64.2471 20.5466C64.2471 20.7749 64.2146 21.0072 64.1464 21.2459L65.9803 21.7698C66.0952 21.3677 66.1544 20.9591 66.1544 20.5466H64.2471ZM64.1519 21.2274C64.0776 21.469 63.9871 21.684 63.8829 21.8752L65.5573 22.7885C65.7277 22.4761 65.8661 22.1418 65.9749 21.7883L64.1519 21.2274ZM64.7201 21.3782C64.2092 21.3782 63.6883 21.4025 63.1575 21.4507L63.3302 23.3502C63.8065 23.3069 64.2697 23.2855 64.7201 23.2855V21.3782ZM63.1575 21.4507C62.6241 21.4992 62.1013 21.5721 61.5892 21.6697L61.946 23.5433C62.3952 23.4577 62.8565 23.3933 63.3302 23.3502L63.1575 21.4507ZM61.5892 21.6697C61.0888 21.765 60.6095 21.8727 60.1517 21.9932L60.637 23.8377C61.0489 23.7293 61.4851 23.6311 61.946 23.5433L61.5892 21.6697ZM60.1875 21.9845C59.727 22.0868 59.3044 22.2203 58.9305 22.3929L59.7297 24.1246C59.9508 24.0226 60.2377 23.9272 60.6012 23.8464L60.1875 21.9845ZM58.3764 23.2588V34.9657H60.2837V23.2588H58.3764ZM81.3562 30.4683L82.2429 30.8193L82.2453 30.8131L81.3562 30.4683ZM79.5023 33.2491L78.848 32.5552L78.8381 32.5648L79.5023 33.2491ZM76.6872 34.9657L76.3688 34.0667L76.3688 34.0667L76.6872 34.9657ZM69.3403 34.9313L69.0054 35.8243L69.0054 35.8243L69.3403 34.9313ZM66.4908 33.1804L65.8165 33.8548L65.8264 33.8647L65.8366 33.8743L66.4908 33.1804ZM64.6713 30.3653L63.7846 30.7163L63.7846 30.7163L64.6713 30.3653ZM64.6713 22.9841L63.7846 22.6331L63.7846 22.6331L64.6713 22.9841ZM66.4908 20.2033L67.155 20.8876L67.1553 20.8873L66.4908 20.2033ZM69.3403 18.4181L69.6751 19.311L69.6751 19.311L69.3403 18.4181ZM76.6872 18.4524L76.3362 19.3391L76.3442 19.3423L76.3523 19.3453L76.6872 18.4524ZM79.5023 20.2376L78.828 20.9119L78.8379 20.9219L78.8481 20.9315L79.5023 20.2376ZM81.3562 23.0184L80.4695 23.3694L80.4695 23.3694L81.3562 23.0184ZM70.7822 29.8847L69.9998 30.4299L70.0093 30.4436L70.0193 30.4568L70.7822 29.8847ZM75.2452 29.8503L74.4629 29.305L74.4572 29.3131L74.4518 29.3213L75.2452 29.8503ZM75.2452 23.4991L74.4628 24.0444L74.4709 24.0557L75.2452 23.4991ZM70.7822 23.4991L71.5567 24.0557L71.5646 24.0444L70.7822 23.4991ZM81.0548 26.6575C81.0548 27.9794 80.8524 29.1298 80.467 30.1235L82.2453 30.8131C82.7297 29.5638 82.9621 28.1737 82.9621 26.6575H81.0548ZM80.4695 30.1173C80.0822 31.0956 79.5402 31.9027 78.8481 32.5553L80.1565 33.943C81.0666 33.0849 81.7604 32.0381 82.2429 30.8193L80.4695 30.1173ZM78.8381 32.5648C78.1656 33.2175 77.3478 33.72 76.3688 34.0667L77.0055 35.8646C78.2237 35.4332 79.2826 34.7913 80.1665 33.9334L78.8381 32.5648ZM76.3688 34.0667C75.3872 34.4144 74.2725 34.5957 73.0137 34.5957V36.5029C74.4556 36.5029 75.7899 36.2951 77.0055 35.8646L76.3688 34.0667ZM73.0137 34.5957C71.7607 34.5957 70.6518 34.4047 69.6751 34.0384L69.0054 35.8243C70.226 36.282 71.566 36.5029 73.0137 36.5029V34.5957ZM69.6751 34.0384C68.6873 33.668 67.848 33.1494 67.145 32.4866L65.8366 33.8743C66.7358 34.7221 67.7961 35.3708 69.0054 35.8243L69.6751 34.0384ZM67.1651 32.5061C66.4857 31.8267 65.9484 31.0008 65.558 30.0143L63.7846 30.7163C64.2638 31.927 64.9395 32.9778 65.8165 33.8548L67.1651 32.5061ZM65.558 30.0143C65.1739 29.044 64.9726 27.9298 64.9726 26.6575H63.0653C63.0653 28.1317 63.2989 29.4894 63.7846 30.7163L65.558 30.0143ZM64.9726 26.6575C64.9726 25.4103 65.1732 24.3072 65.558 23.3351L63.7846 22.6331C63.2996 23.8582 63.0653 25.204 63.0653 26.6575H64.9726ZM65.558 23.3351C65.9476 22.3507 66.4822 21.5406 67.155 20.8876L65.8266 19.519C64.9431 20.3765 64.2646 21.4203 63.7846 22.6331L65.558 23.3351ZM67.1553 20.8873C67.8573 20.2054 68.6933 19.6792 69.6751 19.311L69.0054 17.5251C67.7901 17.9809 66.7264 18.6449 65.8263 19.5193L67.1553 20.8873ZM69.6751 19.311C70.6518 18.9447 71.7607 18.7537 73.0137 18.7537V16.8465C71.566 16.8465 70.226 17.0674 69.0054 17.5251L69.6751 19.311ZM73.0137 18.7537C74.2609 18.7537 75.3641 18.9543 76.3362 19.3391L77.0381 17.5657C75.813 17.0807 74.4672 16.8465 73.0137 16.8465V18.7537ZM76.3523 19.3453C77.332 19.7127 78.1523 20.2363 78.828 20.9119L80.1766 19.5633C79.2959 18.6826 78.2395 18.016 77.022 17.5595L76.3523 19.3453ZM78.8481 20.9315C79.5402 21.584 80.0822 22.3911 80.4695 23.3694L82.2429 22.6674C81.7604 21.4486 81.0666 20.4018 80.1565 19.5438L78.8481 20.9315ZM80.4695 23.3694C80.855 24.3433 81.0548 25.4355 81.0548 26.6575H82.9621C82.9621 25.2247 82.7271 23.8907 82.2429 22.6674L80.4695 23.3694ZM69.0389 26.6575C69.0389 28.1541 69.3179 29.4516 69.9998 30.4299L71.5646 29.3394C71.1937 28.8072 70.9462 27.9532 70.9462 26.6575H69.0389ZM70.0193 30.4568C70.759 31.4431 71.8042 31.9369 73.0481 31.9369V30.0296C72.3694 30.0296 71.904 29.791 71.5451 29.3125L70.0193 30.4568ZM73.0481 31.9369C74.3058 31.9369 75.3462 31.418 76.0387 30.3793L74.4518 29.3213C74.1372 29.7932 73.7129 30.0296 73.0481 30.0296V31.9369ZM76.0276 30.3956C76.708 29.4194 76.9885 28.1352 76.9885 26.6575H75.0812C75.0812 27.9263 74.8353 28.7707 74.4629 29.305L76.0276 30.3956ZM76.9885 26.6575C76.9885 25.1827 76.7091 23.9018 76.0196 22.9425L74.4709 24.0557C74.8342 24.5611 75.0812 25.3859 75.0812 26.6575H76.9885ZM76.0276 22.9538C75.3137 21.9295 74.2705 21.4125 73.0137 21.4125V23.3198C73.6795 23.3198 74.1239 23.558 74.4629 24.0444L76.0276 22.9538ZM73.0137 21.4125C71.7569 21.4125 70.7137 21.9295 69.9998 22.9538L71.5646 24.0444C71.9035 23.558 72.348 23.3198 73.0137 23.3198V21.4125ZM70.0078 22.9425C69.3183 23.9018 69.0389 25.1827 69.0389 26.6575H70.9462C70.9462 25.3859 71.1933 24.5611 71.5566 24.0557L70.0078 22.9425Z" fill="black" mask="url(#path-3-inside-2_12_938)"/>
</svg>
