<svg width="49" height="49" viewBox="0 0 49 49" fill="none" xmlns="http://www.w3.org/2000/svg">
<path d="M45.8596 3.48928C44.0986 1.72823 41.9796 0.848907 39.5001 0.848907H9.49985C7.02045 0.848907 4.90142 1.72823 3.14037 3.48928C1.37932 5.25033 0.5 7.36935 0.5 9.84876V39.8491C0.5 42.3285 1.37932 44.4475 3.14037 46.2085C4.90142 47.9696 7.02045 48.8489 9.49985 48.8489H16.5008C16.9573 48.8489 17.3008 48.8321 17.5315 48.8009C17.7998 48.7471 18.042 48.6039 18.2186 48.3948C18.4468 48.1546 18.5622 47.8062 18.5622 47.3497L18.5453 45.2235C18.5357 43.8685 18.5309 42.797 18.5309 42.0041L17.8102 42.129C17.3537 42.2131 16.7771 42.2492 16.078 42.2396C15.3492 42.2261 14.6229 42.153 13.9061 42.0209C13.143 41.8801 12.4247 41.5588 11.8111 41.084C11.1684 40.5978 10.689 39.9273 10.4368 39.1619L10.1245 38.4412C9.86126 37.8726 9.53053 37.3378 9.13947 36.8483C8.6926 36.2645 8.23852 35.8705 7.77964 35.6615L7.56342 35.5053C7.41264 35.3973 7.2755 35.2715 7.15499 35.1305C7.03989 34.9997 6.94513 34.8523 6.87389 34.6932C6.81143 34.5467 6.86428 34.4266 7.03006 34.3329C7.19823 34.2368 7.49855 34.1911 7.93821 34.1911L8.56287 34.2872C8.9785 34.3689 9.49504 34.6188 10.1077 35.0344C10.7277 35.4571 11.2456 36.0128 11.6237 36.6609C12.1042 37.5138 12.6808 38.1649 13.3583 38.6142C14.0358 39.061 14.7181 39.2869 15.4052 39.2869C16.0924 39.2869 16.6858 39.234 17.1879 39.1307C17.6735 39.0303 18.1453 38.8722 18.5934 38.6598C18.7808 37.2663 19.2901 36.19 20.1238 35.4404C19.0436 35.3345 17.973 35.1466 16.9212 34.8782C15.8949 34.5963 14.9078 34.1871 13.983 33.6602C13.0153 33.1334 12.1607 32.4215 11.4675 31.5652C10.802 30.7315 10.2542 29.6383 9.82659 28.2857C9.40135 26.9307 9.18752 25.3667 9.18752 23.596C9.18752 21.0757 10.0092 18.9303 11.6549 17.1572C10.8861 15.264 10.9582 13.1378 11.8735 10.7857C12.479 10.5959 13.3751 10.7377 14.562 11.2062C15.7488 11.6747 16.6185 12.0759 17.1711 12.4074C17.7237 12.7438 18.1657 13.0249 18.4997 13.2531C20.4529 12.7096 22.4714 12.4363 24.4988 12.4411C26.5626 12.4411 28.5615 12.7126 30.5003 13.2531L31.6871 12.5035C32.6001 11.9554 33.563 11.4953 34.563 11.1293C35.6681 10.7113 36.509 10.5983 37.0952 10.7857C38.0322 13.1402 38.1139 15.264 37.3427 17.1596C38.9884 18.9303 39.8125 21.0757 39.8125 23.5984C39.8125 25.3691 39.5987 26.9379 39.171 28.3001C38.7458 29.6648 38.1932 30.7579 37.5157 31.582C36.8103 32.4274 35.9521 33.1324 34.9858 33.6602C33.9767 34.2223 32.9965 34.6284 32.0475 34.8782C30.9959 35.1475 29.9253 35.3362 28.845 35.4428C29.9261 36.3798 30.4691 37.8574 30.4691 39.8779V47.3497C30.4691 47.7029 30.5195 47.9888 30.6252 48.2074C30.6738 48.3128 30.7431 48.4072 30.829 48.4853C30.9148 48.5633 31.0155 48.6232 31.125 48.6615C31.3556 48.7432 31.5574 48.7961 31.7352 48.8153C31.913 48.8393 32.1677 48.8465 32.4992 48.8465H39.5001C41.9796 48.8465 44.0986 47.9672 45.8596 46.2061C47.6183 44.4475 48.5 42.3261 48.5 39.8467V9.84876C48.5 7.36935 47.6207 5.25033 45.8596 3.48928Z" fill="black"/>
</svg>
