<svg width="49" height="49" viewBox="0 0 49 49" fill="none" xmlns="http://www.w3.org/2000/svg">
<g id="bi:linkedin" clip-path="url(#clip0_9_903)">
<path id="Vector" d="M0.5 4.28691C0.5 2.38791 2.078 0.848907 4.025 0.848907H44.975C46.922 0.848907 48.5 2.38791 48.5 4.28691V45.4109C48.5 47.3099 46.922 48.8489 44.975 48.8489H4.025C2.078 48.8489 0.5 47.3099 0.5 45.4109V4.28691ZM15.329 41.0309V19.3559H8.126V41.0309H15.329ZM11.729 16.3949C14.24 16.3949 15.803 14.7329 15.803 12.6509C15.758 10.5239 14.243 8.90691 11.777 8.90691C9.311 8.90691 7.7 10.5269 7.7 12.6509C7.7 14.7329 9.263 16.3949 11.681 16.3949H11.729ZM26.453 41.0309V28.9259C26.453 28.2779 26.501 27.6299 26.693 27.1679C27.212 25.8749 28.397 24.5339 30.389 24.5339C32.996 24.5339 34.037 26.5199 34.037 29.4359V41.0309H41.24V28.5989C41.24 21.9389 37.688 18.8429 32.948 18.8429C29.126 18.8429 27.413 20.9429 26.453 22.4219V22.4969H26.405C26.4209 22.4719 26.4369 22.4469 26.453 22.4219V19.3559H19.253C19.343 21.3899 19.253 41.0309 19.253 41.0309H26.453Z" fill="black"/>
</g>
<defs>
<clipPath id="clip0_9_903">
<rect width="48" height="48" fill="white" transform="translate(0.5 0.848907)"/>
</clipPath>
</defs>
</svg>
