<svg width="38" height="56" viewBox="0 0 38 56" fill="none" xmlns="http://www.w3.org/2000/svg">
<g clip-path="url(#clip0_14_93)">
<path d="M9.83333 56C14.9853 56 19.1667 51.8187 19.1667 46.6667V37.3333H9.83333C4.68133 37.3333 0.5 41.5147 0.5 46.6667C0.5 51.8187 4.68133 56 9.83333 56Z" fill="#0ACF83"/>
<path d="M0.5 28C0.5 22.848 4.68133 18.6667 9.83333 18.6667H19.1667V37.3333H9.83333C4.68133 37.3333 0.5 33.152 0.5 28Z" fill="#A259FF"/>
<path d="M0.5 9.33333C0.5 4.18133 4.68133 0 9.83333 0H19.1667V18.6667H9.83333C4.68133 18.6667 0.5 14.4853 0.5 9.33333Z" fill="#F24E1E"/>
<path d="M19.1667 0H28.5001C33.6521 0 37.8334 4.18133 37.8334 9.33333C37.8334 14.4853 33.6521 18.6667 28.5001 18.6667H19.1667V0Z" fill="#FF7262"/>
<path d="M37.8334 28C37.8334 33.152 33.6521 37.3333 28.5001 37.3333C23.3481 37.3333 19.1667 33.152 19.1667 28C19.1667 22.848 23.3481 18.6667 28.5001 18.6667C33.6521 18.6667 37.8334 22.848 37.8334 28Z" fill="#1ABCFE"/>
</g>
<defs>
<clipPath id="clip0_14_93">
<rect width="37.3333" height="56" fill="white" transform="translate(0.5)"/>
</clipPath>
</defs>
</svg>
