<svg width="56" height="55" viewBox="0 0 56 55" fill="none" xmlns="http://www.w3.org/2000/svg">
<g clip-path="url(#clip0_14_238)">
<path d="M-0.645874 28.6458C-0.645874 13.458 11.6663 1.14584 26.8541 1.14584C42.042 1.14584 54.3541 13.458 54.3541 28.6458C54.3541 43.8337 42.042 56.1458 26.8541 56.1458C11.6663 56.1458 -0.645874 43.8337 -0.645874 28.6458Z" fill="#F7DF1E"/>
<path d="M18.8334 43.4339L22.0258 41.5019C22.6417 42.5938 23.202 43.5178 24.5459 43.5178C25.8341 43.5178 26.6464 43.0139 26.6464 41.0539V27.7242H30.5667V41.1093C30.5667 45.1697 28.1866 47.018 24.7139 47.018C21.5778 47.018 19.7574 45.3938 18.8333 43.4336M32.6961 43.0138L35.8881 41.1657C36.7285 42.5379 37.8206 43.546 39.7527 43.546C41.3772 43.546 42.413 42.7338 42.413 41.6136C42.413 40.2696 41.3489 39.7934 39.5566 39.0096L38.5768 38.5891C35.7483 37.3854 33.8722 35.8731 33.8722 32.6808C33.8722 29.7403 36.1124 27.5 39.6129 27.5C42.1051 27.5 43.8974 28.3682 45.1854 30.6365L42.1328 32.5968C41.4606 31.3927 40.7329 30.9167 39.6127 30.9167C38.4645 30.9167 37.7364 31.6448 37.7364 32.5968C37.7364 33.7729 38.4645 34.2492 40.1446 34.9773L41.1246 35.3973C44.4571 36.8256 46.3333 38.2816 46.3333 41.5577C46.3333 45.0864 43.561 47.0185 39.8366 47.0185C36.1963 47.0185 33.844 45.2823 32.6959 43.0139" fill="black"/>
</g>
<defs>
<clipPath id="clip0_14_238">
<rect width="55" height="55" fill="white" transform="translate(0.5)"/>
</clipPath>
</defs>
</svg>
